<svg id="svg" version="1.1" xmlns="http://www.w3.org/2000/svg" xmlns:xlink="http://www.w3.org/1999/xlink" width="400" height="90.69767441860465" viewBox="0, 0, 400,90.69767441860465"><g id="svgg"><path id="path0" d="M37.589 0.199 C 35.118 0.279,33.055 0.407,33.006 0.482 C 32.957 0.558,31.904 0.673,30.667 0.738 C 29.429 0.804,28.392 0.927,28.361 1.012 C 28.331 1.097,27.824 1.167,27.236 1.167 C 26.648 1.167,26.167 1.233,26.167 1.313 C 26.167 1.394,25.304 1.514,24.250 1.580 C 23.196 1.646,22.333 1.757,22.333 1.828 C 22.333 1.899,21.583 2.010,20.667 2.075 C 19.750 2.140,19.000 2.256,19.000 2.333 C 19.000 2.410,18.250 2.526,17.333 2.591 C 16.417 2.656,15.667 2.775,15.667 2.855 C 15.667 2.935,15.479 3.000,15.250 3.000 C 15.001 3.000,14.833 3.095,14.833 3.237 C 14.833 3.417,15.227 3.501,16.500 3.591 C 17.417 3.656,18.167 3.775,18.167 3.855 C 18.167 3.935,18.467 4.000,18.833 4.000 C 19.200 4.000,19.500 4.070,19.500 4.157 C 19.500 4.243,20.025 4.365,20.667 4.428 C 21.308 4.491,21.833 4.601,21.833 4.672 C 21.833 4.743,22.283 4.853,22.833 4.917 C 23.383 4.981,23.833 5.093,23.833 5.167 C 23.833 5.241,24.208 5.354,24.667 5.417 C 25.125 5.480,25.500 5.595,25.500 5.672 C 25.500 5.750,25.837 5.864,26.250 5.925 C 26.662 5.987,27.000 6.104,27.000 6.186 C 27.000 6.267,27.144 6.333,27.320 6.333 C 27.496 6.333,27.852 6.441,28.111 6.573 C 28.985 7.017,29.799 7.333,30.067 7.333 C 30.213 7.333,30.333 7.402,30.333 7.487 C 30.333 7.571,30.558 7.690,30.833 7.750 C 31.108 7.810,31.333 7.921,31.333 7.995 C 31.333 8.069,31.596 8.179,31.917 8.239 C 32.237 8.299,32.500 8.412,32.500 8.489 C 32.500 8.567,32.684 8.677,32.910 8.733 C 33.135 8.790,33.521 9.023,33.767 9.251 C 34.014 9.480,34.346 9.667,34.507 9.667 C 34.667 9.667,34.841 9.779,34.894 9.917 C 34.946 10.054,35.104 10.167,35.245 10.167 C 35.385 10.167,35.500 10.234,35.500 10.315 C 35.500 10.397,35.688 10.511,35.917 10.568 C 36.146 10.626,36.333 10.747,36.333 10.837 C 36.333 10.926,36.431 11.000,36.551 11.000 C 36.777 11.000,37.704 11.700,38.151 12.208 C 38.292 12.369,38.471 12.500,38.548 12.500 C 38.823 12.500,43.500 17.104,43.500 17.376 C 43.500 17.469,43.679 17.711,43.897 17.913 C 44.116 18.116,44.346 18.443,44.408 18.641 C 44.471 18.838,44.592 19.000,44.678 19.000 C 44.763 19.000,44.833 19.112,44.833 19.250 C 44.833 19.387,44.907 19.500,44.997 19.500 C 45.087 19.500,45.207 19.688,45.265 19.917 C 45.322 20.146,45.436 20.333,45.518 20.333 C 45.600 20.333,45.667 20.448,45.667 20.589 C 45.667 20.729,45.775 20.885,45.906 20.936 C 46.038 20.986,46.194 21.247,46.253 21.514 C 46.312 21.781,46.429 22.000,46.513 22.000 C 46.598 22.000,46.667 22.133,46.667 22.296 C 46.667 22.459,46.892 23.026,47.167 23.556 C 47.442 24.086,47.667 24.665,47.667 24.843 C 47.667 25.021,47.733 25.167,47.814 25.167 C 47.896 25.167,48.013 25.504,48.075 25.917 C 48.136 26.329,48.249 26.667,48.324 26.667 C 48.400 26.667,48.513 27.079,48.576 27.583 C 48.639 28.088,48.751 28.500,48.826 28.500 C 48.900 28.500,49.015 29.081,49.081 29.792 C 49.148 30.502,49.288 31.137,49.393 31.202 C 49.660 31.369,49.664 42.627,49.397 42.798 C 49.294 42.863,49.156 43.573,49.090 44.375 C 49.024 45.177,48.912 45.833,48.840 45.833 C 48.768 45.833,48.658 46.358,48.595 47.000 C 48.532 47.642,48.419 48.167,48.345 48.167 C 48.270 48.167,48.158 48.625,48.094 49.186 C 48.031 49.746,47.919 50.327,47.846 50.477 C 47.593 50.998,47.167 52.463,47.167 52.814 C 47.167 53.008,47.096 53.167,47.010 53.167 C 46.924 53.167,46.803 53.504,46.741 53.917 C 46.679 54.329,46.567 54.667,46.491 54.667 C 46.416 54.667,46.303 55.004,46.241 55.417 C 46.179 55.829,46.071 56.167,46.000 56.167 C 45.929 56.167,45.821 56.504,45.759 56.917 C 45.697 57.329,45.582 57.667,45.504 57.667 C 45.426 57.667,45.312 57.967,45.250 58.333 C 45.188 58.700,45.069 59.000,44.985 59.000 C 44.902 59.000,44.833 59.146,44.833 59.323 C 44.833 59.501,44.758 59.693,44.667 59.750 C 44.452 59.883,44.450 60.616,44.665 60.749 C 44.755 60.805,44.945 60.753,45.086 60.634 C 45.384 60.382,47.162 58.612,47.433 58.297 C 47.534 58.179,47.834 57.891,48.100 57.655 C 48.366 57.420,48.944 56.820,49.385 56.322 C 50.241 55.356,51.837 53.605,53.333 51.994 C 54.503 50.734,54.667 50.539,54.667 50.402 C 54.667 50.340,54.910 50.050,55.208 49.758 C 55.506 49.465,55.938 48.980,56.167 48.679 C 56.396 48.379,56.790 47.921,57.042 47.663 C 57.294 47.404,57.500 47.133,57.500 47.060 C 57.500 46.987,57.670 46.775,57.877 46.589 C 58.085 46.402,58.441 45.969,58.669 45.626 C 58.897 45.283,59.140 45.002,59.208 45.001 C 59.277 45.001,59.333 44.903,59.333 44.784 C 59.333 44.665,59.555 44.384,59.826 44.159 C 60.097 43.934,60.322 43.674,60.326 43.582 C 60.330 43.489,60.521 43.211,60.750 42.964 C 60.979 42.717,61.167 42.434,61.167 42.335 C 61.167 42.237,61.279 42.113,61.417 42.060 C 61.554 42.008,61.667 41.866,61.667 41.745 C 61.667 41.624,61.873 41.311,62.125 41.048 C 62.647 40.504,62.967 40.043,63.105 39.637 C 63.157 39.482,63.305 39.316,63.433 39.267 C 63.562 39.217,63.667 39.062,63.667 38.922 C 63.667 38.782,63.737 38.667,63.822 38.667 C 63.908 38.667,64.030 38.498,64.095 38.292 C 64.159 38.085,64.258 37.879,64.314 37.833 C 64.371 37.787,64.675 37.375,64.991 36.917 C 65.308 36.458,65.616 36.046,65.677 36.000 C 65.738 35.954,65.841 35.748,65.905 35.542 C 65.970 35.335,66.086 35.167,66.165 35.167 C 66.243 35.167,66.355 34.948,66.414 34.681 C 66.472 34.413,66.628 34.153,66.760 34.102 C 66.892 34.052,67.000 33.896,67.000 33.755 C 67.000 33.615,67.074 33.500,67.163 33.500 C 67.253 33.500,67.374 33.313,67.432 33.083 C 67.489 32.854,67.584 32.666,67.643 32.665 C 67.702 32.664,67.899 32.345,68.081 31.956 C 68.263 31.568,68.450 31.212,68.497 31.167 C 68.577 31.089,69.114 29.992,69.975 28.148 C 70.172 27.726,70.333 27.295,70.333 27.190 C 70.333 27.086,70.408 27.000,70.500 27.000 C 70.592 27.000,70.667 26.813,70.667 26.583 C 70.667 26.354,70.742 26.167,70.833 26.167 C 70.925 26.167,71.000 26.073,71.001 25.958 C 71.002 25.844,71.111 25.541,71.245 25.285 C 71.378 25.029,71.536 24.560,71.596 24.243 C 71.655 23.926,71.765 23.667,71.840 23.667 C 71.915 23.667,72.028 23.254,72.091 22.750 C 72.154 22.246,72.268 21.833,72.344 21.833 C 72.421 21.833,72.535 21.382,72.597 20.830 C 72.659 20.278,72.776 19.786,72.855 19.736 C 72.935 19.687,73.000 19.291,73.000 18.857 C 73.000 18.422,73.080 17.986,73.178 17.888 C 73.455 17.612,73.131 12.500,72.837 12.500 C 72.764 12.500,72.654 12.087,72.591 11.583 C 72.528 11.079,72.415 10.667,72.340 10.667 C 72.265 10.667,72.155 10.404,72.094 10.083 C 72.034 9.763,71.915 9.500,71.829 9.500 C 71.743 9.500,71.626 9.313,71.568 9.083 C 71.511 8.854,71.405 8.667,71.333 8.667 C 71.262 8.667,71.157 8.484,71.101 8.261 C 71.045 8.038,70.849 7.808,70.666 7.750 C 70.483 7.692,70.333 7.546,70.333 7.426 C 70.333 7.209,68.799 5.500,68.604 5.500 C 68.548 5.500,68.159 5.237,67.739 4.917 C 67.318 4.596,66.868 4.333,66.737 4.333 C 66.607 4.333,66.500 4.258,66.500 4.167 C 66.500 4.075,66.387 4.000,66.250 4.000 C 66.112 4.000,66.000 3.931,66.000 3.847 C 66.000 3.762,65.775 3.644,65.500 3.583 C 65.225 3.523,65.000 3.410,65.000 3.333 C 65.000 3.256,64.775 3.144,64.500 3.083 C 64.225 3.023,64.000 2.905,64.000 2.822 C 64.000 2.739,63.700 2.623,63.333 2.564 C 62.967 2.505,62.667 2.400,62.667 2.331 C 62.667 2.261,62.329 2.154,61.917 2.092 C 61.504 2.030,61.167 1.918,61.167 1.843 C 61.167 1.767,60.679 1.653,60.083 1.589 C 59.487 1.526,59.000 1.404,59.000 1.320 C 59.000 1.236,58.779 1.167,58.510 1.167 C 58.240 1.167,57.977 1.098,57.926 1.015 C 57.874 0.931,57.176 0.809,56.374 0.743 C 55.573 0.677,54.879 0.569,54.833 0.504 C 54.557 0.105,45.401 -0.057,37.589 0.199 M81.000 10.815 C 81.000 10.897,80.810 11.012,80.578 11.070 C 80.044 11.204,78.702 12.553,78.566 13.092 C 78.510 13.316,78.406 13.500,78.334 13.500 C 78.263 13.500,78.162 13.706,78.109 13.958 C 77.857 15.171,77.571 16.268,77.464 16.433 C 77.399 16.533,77.296 16.927,77.235 17.308 C 77.174 17.688,77.067 18.000,76.998 18.000 C 76.928 18.000,76.821 18.336,76.759 18.746 C 76.698 19.156,76.583 19.532,76.505 19.580 C 76.426 19.629,76.312 19.968,76.250 20.334 C 76.188 20.700,76.069 21.000,75.985 21.000 C 75.902 21.000,75.833 21.141,75.833 21.313 C 75.833 21.616,75.571 22.350,75.073 23.442 C 74.941 23.731,74.833 24.124,74.833 24.317 C 74.833 24.509,74.764 24.667,74.680 24.667 C 74.596 24.667,74.476 24.897,74.414 25.178 C 74.352 25.459,74.197 25.890,74.069 26.136 C 73.940 26.382,73.835 26.677,73.834 26.792 C 73.834 26.906,73.765 27.000,73.681 27.000 C 73.598 27.000,73.479 27.300,73.417 27.667 C 73.355 28.033,73.236 28.333,73.152 28.333 C 73.068 28.333,73.000 28.446,73.000 28.583 C 73.000 28.721,72.925 28.833,72.833 28.833 C 72.742 28.833,72.667 28.914,72.667 29.013 C 72.667 29.112,72.404 29.738,72.083 30.406 C 71.762 31.073,71.500 31.742,71.500 31.892 C 71.500 32.043,71.426 32.167,71.337 32.167 C 71.247 32.167,71.126 32.354,71.068 32.583 C 71.011 32.813,70.916 33.001,70.857 33.002 C 70.798 33.002,70.602 33.340,70.421 33.752 C 70.240 34.163,70.040 34.500,69.976 34.500 C 69.912 34.500,69.810 34.725,69.750 35.000 C 69.690 35.275,69.579 35.500,69.505 35.500 C 69.430 35.500,69.322 35.687,69.265 35.917 C 69.207 36.146,69.093 36.333,69.010 36.333 C 68.927 36.333,68.810 36.558,68.750 36.833 C 68.690 37.108,68.573 37.333,68.490 37.333 C 68.407 37.333,68.293 37.521,68.235 37.750 C 68.178 37.979,68.064 38.167,67.982 38.167 C 67.900 38.167,67.833 38.271,67.833 38.399 C 67.833 38.527,67.721 38.674,67.583 38.727 C 67.446 38.780,67.333 38.938,67.333 39.078 C 67.333 39.218,67.263 39.333,67.178 39.333 C 67.092 39.333,66.970 39.499,66.906 39.701 C 66.842 39.903,66.687 40.170,66.561 40.296 C 66.436 40.421,66.333 40.631,66.333 40.762 C 66.333 40.893,66.258 41.000,66.167 41.000 C 66.075 41.000,66.000 41.109,66.000 41.242 C 66.000 41.375,65.900 41.543,65.779 41.617 C 65.657 41.690,65.416 41.994,65.243 42.292 C 65.070 42.590,64.869 42.833,64.797 42.833 C 64.725 42.833,64.667 42.948,64.667 43.089 C 64.667 43.229,64.554 43.387,64.417 43.440 C 64.279 43.492,64.167 43.641,64.167 43.769 C 64.167 43.898,64.017 44.132,63.833 44.289 C 63.650 44.446,63.500 44.638,63.500 44.716 C 63.500 44.793,63.406 44.956,63.292 45.078 C 63.177 45.199,62.896 45.537,62.667 45.828 C 62.438 46.119,62.006 46.620,61.708 46.941 C 61.410 47.261,61.167 47.585,61.167 47.661 C 61.167 48.061,52.730 56.455,52.134 56.647 C 52.015 56.686,51.751 56.893,51.550 57.109 C 51.348 57.324,51.115 57.500,51.033 57.500 C 50.950 57.500,50.652 57.706,50.371 57.958 C 49.570 58.675,49.416 58.785,49.029 58.908 C 48.830 58.971,48.667 59.092,48.667 59.178 C 48.667 59.263,48.552 59.333,48.411 59.333 C 48.271 59.333,48.113 59.446,48.060 59.583 C 48.008 59.721,47.865 59.833,47.744 59.833 C 47.623 59.833,47.424 59.927,47.301 60.042 C 47.178 60.156,46.798 60.393,46.456 60.568 C 46.113 60.743,45.833 60.949,45.833 61.026 C 45.833 61.103,45.721 61.167,45.583 61.167 C 45.441 61.167,45.333 61.316,45.333 61.513 C 45.333 61.863,47.422 61.853,47.667 61.503 C 47.712 61.437,48.199 61.332,48.748 61.269 C 49.297 61.206,49.818 61.082,49.906 60.994 C 49.994 60.906,50.277 60.833,50.533 60.833 C 50.790 60.833,51.000 60.767,51.000 60.686 C 51.000 60.604,51.337 60.487,51.750 60.425 C 52.163 60.364,52.500 60.252,52.500 60.178 C 52.500 60.103,52.790 59.996,53.145 59.940 C 53.499 59.883,54.005 59.724,54.270 59.586 C 54.534 59.448,54.877 59.335,55.032 59.334 C 55.187 59.334,55.356 59.264,55.409 59.179 C 55.461 59.095,55.728 58.976,56.002 58.916 C 56.276 58.856,56.500 58.738,56.500 58.653 C 56.500 58.569,56.612 58.500,56.750 58.500 C 56.887 58.500,57.000 58.425,57.000 58.333 C 57.000 58.242,57.131 58.164,57.292 58.161 C 57.452 58.158,57.883 58.010,58.250 57.833 C 58.617 57.656,59.010 57.509,59.125 57.506 C 59.240 57.503,59.333 57.425,59.333 57.333 C 59.333 57.242,59.448 57.167,59.589 57.167 C 59.729 57.167,59.887 57.054,59.940 56.917 C 59.992 56.779,60.168 56.667,60.329 56.667 C 60.490 56.667,60.812 56.517,61.045 56.333 C 61.279 56.150,61.551 56.000,61.651 56.000 C 61.751 56.000,61.833 55.925,61.833 55.833 C 61.833 55.742,61.946 55.667,62.083 55.667 C 62.221 55.667,62.333 55.593,62.333 55.503 C 62.333 55.413,62.521 55.293,62.750 55.235 C 62.979 55.178,63.169 55.082,63.171 55.024 C 63.174 54.965,63.474 54.733,63.838 54.508 C 64.202 54.283,64.500 54.040,64.500 53.966 C 64.500 53.893,64.602 53.833,64.727 53.833 C 64.851 53.833,65.094 53.646,65.266 53.417 C 65.438 53.188,65.662 53.000,65.764 53.000 C 65.981 53.000,66.740 52.356,68.368 50.792 C 69.012 50.173,69.602 49.667,69.679 49.667 C 69.897 49.667,71.665 47.776,71.666 47.542 C 71.666 47.427,71.779 47.333,71.917 47.333 C 72.054 47.333,72.167 47.262,72.167 47.174 C 72.167 47.087,72.485 46.689,72.875 46.289 C 73.650 45.494,74.663 44.283,74.901 43.866 C 74.985 43.721,75.229 43.439,75.443 43.240 C 75.658 43.041,75.833 42.793,75.833 42.689 C 75.833 42.585,75.903 42.500,75.989 42.500 C 76.074 42.500,76.186 42.369,76.237 42.208 C 76.288 42.048,76.509 41.724,76.728 41.488 C 76.946 41.252,77.177 40.896,77.241 40.696 C 77.385 40.241,77.667 40.222,77.667 40.667 C 77.667 40.850,77.596 41.000,77.510 41.000 C 77.424 41.000,77.303 41.337,77.241 41.750 C 77.179 42.162,77.071 42.500,77.000 42.500 C 76.929 42.500,76.821 42.837,76.759 43.250 C 76.697 43.662,76.582 44.000,76.504 44.000 C 76.426 44.000,76.312 44.300,76.250 44.667 C 76.188 45.033,76.084 45.333,76.020 45.333 C 75.955 45.333,75.758 45.765,75.581 46.292 C 75.405 46.819,75.164 47.438,75.048 47.667 C 74.931 47.896,74.835 48.177,74.834 48.292 C 74.834 48.406,74.762 48.500,74.674 48.500 C 74.587 48.500,74.466 48.762,74.406 49.083 C 74.345 49.404,74.233 49.667,74.156 49.667 C 74.078 49.667,73.966 49.929,73.906 50.250 C 73.845 50.571,73.736 50.833,73.661 50.833 C 73.587 50.833,73.477 51.058,73.417 51.333 C 73.356 51.608,73.238 51.833,73.153 51.833 C 73.069 51.833,73.000 51.946,73.000 52.083 C 73.000 52.221,72.931 52.333,72.847 52.333 C 72.762 52.333,72.644 52.558,72.583 52.833 C 72.523 53.108,72.413 53.333,72.338 53.333 C 72.264 53.333,72.156 53.521,72.098 53.750 C 72.041 53.979,71.926 54.167,71.843 54.167 C 71.761 54.167,71.644 54.392,71.583 54.667 C 71.523 54.942,71.406 55.167,71.323 55.167 C 71.241 55.167,71.126 55.354,71.068 55.583 C 71.011 55.813,70.897 56.000,70.815 56.000 C 70.734 56.000,70.665 56.094,70.662 56.208 C 70.659 56.323,70.434 56.711,70.162 57.071 C 69.890 57.431,69.667 57.829,69.667 57.954 C 69.667 58.080,69.479 58.356,69.250 58.569 C 69.021 58.781,68.833 59.042,68.833 59.149 C 68.833 59.256,68.728 59.384,68.598 59.434 C 68.469 59.484,68.318 59.706,68.262 59.929 C 68.206 60.151,68.087 60.333,67.997 60.333 C 67.907 60.333,67.833 60.446,67.833 60.583 C 67.833 60.721,67.763 60.833,67.678 60.833 C 67.592 60.833,67.470 60.999,67.406 61.201 C 67.342 61.403,67.074 61.758,66.811 61.988 C 66.548 62.219,66.333 62.469,66.333 62.544 C 66.333 62.671,66.200 62.857,65.734 63.385 C 65.634 63.499,65.575 63.747,65.604 63.936 C 65.714 64.655,59.847 70.833,59.056 70.833 C 58.853 70.833,58.646 70.898,58.597 70.978 C 58.548 71.058,58.202 71.172,57.830 71.231 C 57.457 71.291,57.024 71.408,56.868 71.491 C 56.398 71.741,54.882 72.167,54.460 72.167 C 54.244 72.167,53.995 72.236,53.908 72.321 C 53.721 72.503,51.803 72.790,49.250 73.019 C 48.242 73.109,47.042 73.260,46.583 73.355 C 45.343 73.612,38.206 73.223,37.167 72.843 C 36.938 72.759,36.307 72.640,35.766 72.580 C 35.225 72.519,34.625 72.409,34.433 72.335 C 34.241 72.261,33.483 72.066,32.750 71.901 C 32.017 71.737,31.342 71.548,31.250 71.483 C 31.158 71.417,30.801 71.310,30.456 71.246 C 30.112 71.182,29.789 71.062,29.738 70.981 C 29.688 70.900,29.520 70.833,29.365 70.832 C 29.210 70.832,28.869 70.719,28.606 70.582 C 28.343 70.445,28.055 70.333,27.964 70.333 C 27.777 70.333,27.032 70.017,25.573 69.317 C 25.018 69.051,24.474 68.833,24.365 68.833 C 24.256 68.833,24.167 68.766,24.167 68.685 C 24.167 68.603,23.961 68.485,23.710 68.422 C 23.459 68.358,23.215 68.257,23.168 68.195 C 23.122 68.134,22.783 67.938,22.417 67.761 C 21.478 67.308,18.428 65.455,18.361 65.298 C 18.331 65.226,18.229 65.167,18.135 65.167 C 17.988 65.167,16.973 64.439,16.395 63.919 C 16.292 63.826,16.039 63.637,15.833 63.500 C 15.628 63.362,15.374 63.175,15.270 63.083 C 15.165 62.992,14.481 62.433,13.748 61.843 C 12.303 60.677,8.634 57.060,7.166 55.352 C 6.662 54.767,6.172 54.204,6.077 54.102 C 5.981 54.000,5.423 53.279,4.836 52.500 C 4.249 51.721,3.727 51.046,3.676 51.000 C 3.625 50.954,3.221 50.382,2.778 49.728 C 2.153 48.805,1.901 48.557,1.655 48.621 C 1.460 48.673,1.298 48.601,1.235 48.437 C 1.178 48.289,1.063 48.211,0.980 48.262 C 0.896 48.314,0.875 48.432,0.932 48.525 C 0.989 48.617,0.875 48.806,0.678 48.944 C 0.271 49.229,0.333 49.668,0.860 50.234 C 1.036 50.422,1.222 50.747,1.275 50.955 C 1.327 51.163,1.431 51.333,1.507 51.333 C 1.582 51.333,1.696 51.496,1.759 51.696 C 1.822 51.895,1.941 52.138,2.023 52.237 C 2.687 53.034,2.833 53.231,2.833 53.327 C 2.833 53.388,2.965 53.585,3.125 53.767 C 3.605 54.309,4.167 55.142,4.167 55.313 C 4.167 55.400,4.231 55.497,4.309 55.528 C 4.496 55.601,6.000 57.460,6.000 57.617 C 6.000 57.684,6.171 57.892,6.381 58.078 C 6.590 58.264,6.920 58.623,7.113 58.874 C 7.671 59.602,10.519 62.670,11.242 63.322 C 11.605 63.649,12.396 64.367,13.000 64.917 C 14.224 66.031,15.064 66.728,16.281 67.643 C 17.144 68.291,17.224 68.355,18.189 69.161 C 18.522 69.439,18.844 69.667,18.904 69.667 C 18.965 69.667,19.105 69.744,19.215 69.839 C 19.575 70.146,21.597 71.451,22.434 71.915 C 22.883 72.164,23.352 72.451,23.476 72.553 C 23.749 72.775,24.292 73.095,24.763 73.311 C 24.953 73.398,25.853 73.822,26.763 74.252 C 27.672 74.683,28.829 75.219,29.333 75.445 C 29.837 75.670,30.380 75.925,30.539 76.011 C 30.699 76.096,30.912 76.167,31.014 76.167 C 31.116 76.167,31.436 76.272,31.725 76.400 C 32.014 76.528,32.662 76.771,33.167 76.940 C 33.671 77.109,34.128 77.308,34.182 77.382 C 34.236 77.457,34.349 77.501,34.432 77.481 C 34.638 77.432,35.519 77.652,35.868 77.840 C 36.024 77.925,36.474 78.043,36.868 78.103 C 37.261 78.163,37.658 78.270,37.750 78.340 C 37.842 78.410,38.424 78.521,39.044 78.587 C 39.664 78.652,40.207 78.764,40.251 78.836 C 40.295 78.907,40.932 79.018,41.667 79.083 C 42.401 79.148,43.043 79.269,43.094 79.351 C 43.145 79.433,43.369 79.500,43.593 79.500 C 43.817 79.500,44.000 79.583,44.000 79.685 C 44.000 79.798,43.774 79.843,43.417 79.802 C 43.096 79.764,42.833 79.787,42.833 79.851 C 42.833 79.916,42.458 80.020,42.000 80.083 C 41.542 80.146,41.167 80.259,41.167 80.333 C 41.167 80.407,40.717 80.519,40.167 80.583 C 39.617 80.647,39.167 80.758,39.167 80.830 C 39.167 80.902,38.529 81.014,37.750 81.079 C 36.971 81.143,36.333 81.265,36.333 81.348 C 36.333 81.432,35.846 81.500,35.250 81.500 C 34.639 81.500,34.167 81.573,34.167 81.667 C 34.167 81.772,33.000 81.833,31.000 81.833 C 29.000 81.833,27.833 81.772,27.833 81.667 C 27.833 81.573,27.364 81.500,26.760 81.500 C 26.169 81.500,25.645 81.433,25.594 81.351 C 25.543 81.269,24.901 81.148,24.168 81.083 C 23.434 81.018,22.833 80.905,22.833 80.832 C 22.833 80.759,22.383 80.647,21.833 80.583 C 21.283 80.519,20.795 80.407,20.750 80.333 C 20.704 80.258,20.291 80.146,19.833 80.083 C 19.375 80.020,19.000 79.909,19.000 79.837 C 19.000 79.764,18.663 79.654,18.250 79.592 C 17.837 79.530,17.500 79.409,17.500 79.323 C 17.500 79.237,17.359 79.167,17.186 79.167 C 17.013 79.167,16.657 79.055,16.394 78.918 C 16.131 78.781,15.792 78.668,15.639 78.668 C 15.486 78.667,15.332 78.578,15.296 78.470 C 15.208 78.208,14.833 78.453,14.833 78.773 C 14.833 79.000,16.682 81.000,16.892 81.000 C 16.939 81.000,17.410 81.412,17.939 81.917 C 18.468 82.421,18.998 82.833,19.117 82.833 C 19.236 82.833,19.333 82.946,19.333 83.083 C 19.333 83.221,19.448 83.333,19.589 83.333 C 19.729 83.333,19.887 83.446,19.940 83.583 C 19.992 83.721,20.129 83.833,20.243 83.833 C 20.358 83.833,20.638 84.002,20.867 84.208 C 21.649 84.915,22.239 85.333,22.453 85.333 C 22.570 85.333,22.667 85.402,22.667 85.487 C 22.667 85.571,22.892 85.690,23.167 85.750 C 23.442 85.810,23.667 85.921,23.667 85.995 C 23.667 86.070,23.861 86.179,24.098 86.239 C 24.335 86.298,24.689 86.497,24.886 86.680 C 25.083 86.863,25.414 87.056,25.622 87.108 C 25.830 87.160,26.000 87.264,26.000 87.338 C 26.000 87.413,26.225 87.523,26.500 87.583 C 26.775 87.644,27.000 87.756,27.000 87.833 C 27.000 87.910,27.225 88.023,27.500 88.083 C 27.775 88.144,28.000 88.253,28.000 88.325 C 28.000 88.398,28.300 88.505,28.667 88.564 C 29.033 88.623,29.333 88.739,29.333 88.823 C 29.333 88.907,29.746 89.028,30.250 89.091 C 30.754 89.154,31.167 89.271,31.167 89.353 C 31.167 89.434,31.279 89.500,31.417 89.500 C 31.554 89.500,31.667 89.570,31.667 89.657 C 31.667 89.743,32.192 89.865,32.833 89.928 C 33.475 89.991,34.000 90.096,34.000 90.161 C 34.000 90.743,45.802 90.753,46.165 90.171 C 46.212 90.095,46.681 89.980,47.208 89.914 C 47.735 89.849,48.167 89.729,48.167 89.647 C 48.167 89.566,48.354 89.500,48.583 89.500 C 48.813 89.500,49.000 89.430,49.000 89.344 C 49.000 89.257,49.337 89.136,49.750 89.075 C 50.163 89.013,50.500 88.905,50.500 88.836 C 50.500 88.766,50.800 88.661,51.167 88.603 C 51.533 88.544,51.833 88.422,51.833 88.331 C 51.833 88.241,51.965 88.164,52.125 88.161 C 52.285 88.158,52.717 88.010,53.083 87.833 C 53.450 87.656,53.844 87.509,53.958 87.506 C 54.073 87.503,54.168 87.444,54.169 87.375 C 54.170 87.306,54.488 87.101,54.877 86.918 C 55.265 86.735,55.682 86.491,55.804 86.376 C 55.925 86.261,56.131 86.167,56.262 86.167 C 56.393 86.167,56.500 86.092,56.500 86.000 C 56.500 85.908,56.615 85.833,56.755 85.833 C 56.896 85.833,57.054 85.721,57.106 85.583 C 57.159 85.446,57.301 85.333,57.423 85.333 C 57.544 85.333,57.745 85.231,57.871 85.105 C 57.996 84.980,58.260 84.826,58.458 84.763 C 58.655 84.701,58.860 84.511,58.914 84.341 C 58.968 84.172,59.197 83.987,59.423 83.930 C 59.649 83.873,59.833 83.753,59.833 83.663 C 59.833 83.574,59.927 83.500,60.042 83.499 C 60.156 83.499,60.490 83.274,60.783 82.999 C 61.076 82.725,61.367 82.500,61.429 82.500 C 61.492 82.500,62.047 81.988,62.662 81.361 C 63.277 80.735,63.906 80.175,64.058 80.116 C 64.211 80.057,64.423 79.820,64.528 79.588 C 64.634 79.356,64.811 79.167,64.922 79.167 C 65.033 79.167,65.174 78.853,65.236 78.469 C 65.325 77.908,65.558 77.555,66.412 76.677 C 66.998 76.075,67.790 75.208,68.172 74.750 C 68.554 74.292,69.002 73.756,69.166 73.560 C 69.331 73.364,69.516 73.045,69.578 72.852 C 69.639 72.658,69.759 72.500,69.845 72.500 C 69.930 72.500,70.000 72.399,70.000 72.276 C 70.000 72.152,70.149 71.871,70.331 71.651 C 70.628 71.291,71.117 70.690,71.583 70.110 C 71.860 69.766,72.119 69.314,72.840 67.917 C 73.219 67.183,73.822 66.144,74.181 65.606 C 74.540 65.068,74.833 64.562,74.833 64.481 C 74.833 64.400,74.908 64.333,75.000 64.333 C 75.092 64.333,75.167 64.254,75.167 64.158 C 75.167 64.061,75.321 63.630,75.509 63.199 C 75.697 62.769,75.911 62.267,75.984 62.083 C 76.248 61.421,77.253 59.415,77.362 59.332 C 77.423 59.285,77.525 59.040,77.589 58.788 C 77.652 58.536,77.770 58.289,77.852 58.239 C 77.933 58.188,78.000 58.038,78.000 57.904 C 78.000 57.367,78.892 55.665,79.151 55.708 C 79.331 55.737,79.462 55.543,79.574 55.083 C 79.662 54.717,79.785 54.379,79.847 54.333 C 79.908 54.288,80.014 53.987,80.082 53.667 C 80.150 53.346,80.262 53.008,80.331 52.917 C 80.400 52.825,80.507 52.469,80.569 52.125 C 80.631 51.781,80.753 51.500,80.841 51.500 C 80.928 51.500,81.000 51.275,81.000 51.000 C 81.000 50.725,81.066 50.500,81.148 50.500 C 81.229 50.500,81.346 50.163,81.408 49.750 C 81.470 49.337,81.585 49.000,81.665 49.000 C 81.744 49.000,81.861 48.587,81.924 48.083 C 81.987 47.579,82.099 47.167,82.174 47.167 C 82.248 47.167,82.361 46.754,82.424 46.250 C 82.487 45.746,82.597 45.333,82.670 45.333 C 82.742 45.333,82.853 44.883,82.917 44.333 C 82.981 43.783,83.100 43.291,83.183 43.240 C 83.266 43.189,83.333 42.931,83.333 42.667 C 83.333 42.402,83.401 42.145,83.484 42.093 C 83.566 42.042,83.688 41.535,83.754 40.965 C 83.820 40.396,83.936 39.815,84.012 39.673 C 84.171 39.379,84.442 37.774,84.710 35.542 C 84.812 34.694,84.950 34.000,85.017 34.000 C 85.084 34.000,85.192 33.175,85.257 32.167 C 85.323 31.158,85.442 30.333,85.521 30.333 C 85.601 30.333,85.668 29.940,85.670 29.458 C 85.672 28.977,85.782 27.683,85.915 26.583 C 86.048 25.483,86.159 23.782,86.161 22.802 C 86.164 21.799,86.240 20.975,86.333 20.917 C 86.435 20.854,86.500 19.554,86.500 17.573 C 86.500 15.524,86.439 14.333,86.333 14.333 C 86.242 14.333,86.167 14.152,86.167 13.930 C 86.167 12.978,84.541 11.000,83.758 11.000 C 83.524 11.000,83.333 10.925,83.333 10.833 C 83.333 10.738,82.833 10.667,82.167 10.667 C 81.525 10.667,81.000 10.734,81.000 10.815 M99.333 50.917 L 99.333 69.667 104.667 69.667 L 110.000 69.667 110.000 62.819 L 110.000 55.972 117.006 56.028 C 121.921 56.067,124.048 56.139,124.131 56.269 C 124.197 56.371,124.432 56.512,124.654 56.581 C 125.120 56.727,126.167 57.691,126.167 57.975 C 126.167 58.080,126.229 58.167,126.305 58.167 C 126.477 58.167,126.839 59.494,126.941 60.500 C 126.983 60.913,127.085 61.400,127.167 61.583 C 127.250 61.767,127.340 63.336,127.368 65.070 C 127.406 67.393,127.474 68.241,127.627 68.292 C 127.740 68.330,127.833 68.510,127.833 68.692 C 127.833 69.732,127.112 69.667,138.557 69.667 L 148.936 69.667 149.218 69.027 C 149.373 68.676,149.500 68.319,149.501 68.236 C 149.501 68.152,149.683 67.725,149.905 67.288 C 150.127 66.851,150.358 66.269,150.417 65.996 C 150.477 65.723,150.586 65.500,150.659 65.500 C 150.731 65.500,150.839 65.200,150.897 64.833 C 150.956 64.467,151.068 64.167,151.147 64.167 C 151.226 64.167,151.339 63.867,151.397 63.500 C 151.456 63.133,151.569 62.833,151.648 62.833 C 151.727 62.833,151.837 62.608,151.892 62.333 L 151.992 61.833 160.308 61.833 L 168.624 61.833 168.731 62.500 C 168.789 62.867,168.905 63.167,168.987 63.167 C 169.070 63.167,169.188 63.467,169.250 63.833 C 169.312 64.200,169.423 64.500,169.496 64.500 C 169.570 64.500,169.679 64.762,169.739 65.083 C 169.799 65.404,169.920 65.667,170.008 65.667 C 170.095 65.667,170.167 65.840,170.167 66.051 C 170.167 66.263,170.277 66.582,170.411 66.760 C 170.546 66.938,170.658 67.252,170.661 67.458 C 170.664 67.665,170.734 67.833,170.815 67.833 C 170.897 67.833,171.014 68.040,171.075 68.292 C 171.135 68.544,171.274 68.956,171.383 69.208 L 171.581 69.667 177.207 69.667 L 182.833 69.667 182.833 69.250 C 182.833 69.021,182.758 68.833,182.667 68.833 C 182.575 68.833,182.497 68.702,182.494 68.542 C 182.491 68.381,182.344 67.950,182.167 67.583 C 181.990 67.217,181.842 66.823,181.839 66.708 C 181.836 66.594,181.758 66.500,181.667 66.500 C 181.575 66.500,181.500 66.388,181.500 66.251 C 181.500 65.913,180.951 64.667,180.802 64.667 C 180.736 64.667,180.633 64.404,180.572 64.083 C 180.512 63.762,180.405 63.500,180.333 63.500 C 180.262 63.500,180.155 63.237,180.094 62.917 C 180.034 62.596,179.922 62.333,179.844 62.333 C 179.767 62.333,179.655 62.071,179.594 61.750 C 179.534 61.429,179.422 61.167,179.344 61.167 C 179.267 61.167,179.155 60.904,179.094 60.583 C 179.034 60.262,178.913 60.000,178.826 60.000 C 178.738 60.000,178.667 59.880,178.667 59.734 C 178.667 59.479,178.191 58.506,177.982 58.333 C 177.927 58.288,177.830 57.969,177.766 57.625 C 177.703 57.281,177.580 57.000,177.492 57.000 C 177.405 57.000,177.333 56.906,177.332 56.792 C 177.332 56.677,177.226 56.382,177.098 56.136 C 176.970 55.890,176.814 55.459,176.752 55.178 C 176.691 54.897,176.587 54.667,176.521 54.667 C 176.456 54.667,176.262 54.254,176.091 53.750 C 175.919 53.246,175.716 52.833,175.640 52.833 C 175.563 52.833,175.500 52.740,175.499 52.625 C 175.498 52.510,175.393 52.215,175.265 51.970 C 175.136 51.724,174.981 51.292,174.919 51.011 C 174.857 50.730,174.744 50.500,174.667 50.500 C 174.590 50.500,174.476 50.270,174.414 49.989 C 174.352 49.708,174.197 49.276,174.069 49.030 C 173.940 48.785,173.835 48.490,173.834 48.375 C 173.834 48.260,173.774 48.167,173.701 48.167 C 173.628 48.167,173.429 47.754,173.257 47.250 C 173.086 46.746,172.886 46.333,172.814 46.333 C 172.741 46.333,172.633 46.071,172.572 45.750 C 172.512 45.429,172.405 45.167,172.333 45.167 C 172.262 45.167,172.155 44.904,172.094 44.583 C 172.034 44.262,171.917 44.000,171.833 44.000 C 171.750 44.000,171.633 43.737,171.572 43.417 C 171.512 43.096,171.396 42.833,171.315 42.833 C 171.233 42.833,171.167 42.698,171.167 42.532 C 171.167 42.366,171.057 42.085,170.922 41.907 C 170.787 41.729,170.675 41.452,170.672 41.292 C 170.669 41.131,170.592 41.000,170.500 41.000 C 170.408 41.000,170.331 40.906,170.328 40.792 C 170.325 40.677,170.177 40.283,170.000 39.917 C 169.823 39.550,169.675 39.119,169.672 38.958 C 169.669 38.798,169.598 38.667,169.513 38.667 C 169.429 38.667,169.310 38.442,169.250 38.167 C 169.190 37.892,169.081 37.667,169.008 37.667 C 168.935 37.667,168.828 37.367,168.769 37.000 C 168.711 36.633,168.595 36.333,168.511 36.333 C 168.428 36.333,168.311 36.109,168.250 35.835 C 168.190 35.561,168.072 35.294,167.987 35.242 C 167.903 35.190,167.833 35.001,167.833 34.823 C 167.833 34.646,167.764 34.500,167.680 34.500 C 167.596 34.500,167.477 34.275,167.417 34.000 C 167.356 33.725,167.247 33.500,167.175 33.500 C 167.102 33.500,166.995 33.200,166.936 32.833 L 166.829 32.167 160.346 32.167 L 153.863 32.167 153.750 32.833 C 153.688 33.200,153.575 33.500,153.499 33.500 C 153.422 33.500,153.310 33.725,153.250 34.000 C 153.190 34.275,153.078 34.500,153.001 34.500 C 152.925 34.500,152.812 34.800,152.750 35.167 C 152.688 35.533,152.569 35.833,152.485 35.833 C 152.402 35.833,152.333 35.946,152.333 36.083 C 152.333 36.221,152.259 36.333,152.169 36.333 C 152.078 36.333,151.956 36.633,151.897 37.000 C 151.839 37.367,151.731 37.667,151.659 37.667 C 151.586 37.667,151.477 37.892,151.417 38.167 C 151.356 38.442,151.241 38.667,151.161 38.667 C 151.081 38.667,150.966 38.929,150.906 39.250 C 150.845 39.571,150.738 39.833,150.667 39.833 C 150.595 39.833,150.489 40.090,150.430 40.405 C 150.371 40.719,150.269 41.000,150.203 41.030 C 150.036 41.105,149.500 42.293,149.500 42.589 C 149.500 42.723,149.425 42.833,149.333 42.833 C 149.242 42.833,149.167 42.912,149.167 43.009 C 149.167 43.161,148.958 43.681,148.333 45.083 C 147.709 46.486,147.500 47.005,147.500 47.158 C 147.500 47.254,147.425 47.333,147.333 47.333 C 147.242 47.333,147.167 47.479,147.167 47.657 C 147.167 47.835,147.097 48.023,147.013 48.075 C 146.928 48.128,146.810 48.395,146.750 48.669 C 146.689 48.943,146.575 49.167,146.494 49.167 C 146.414 49.167,146.299 49.429,146.239 49.750 C 146.179 50.071,146.071 50.333,146.000 50.333 C 145.929 50.333,145.821 50.596,145.761 50.917 C 145.701 51.237,145.583 51.500,145.500 51.500 C 145.417 51.500,145.299 51.762,145.239 52.083 C 145.179 52.404,145.063 52.667,144.981 52.667 C 144.900 52.667,144.833 52.817,144.833 53.000 C 144.833 53.183,144.758 53.333,144.667 53.333 C 144.575 53.333,144.497 53.427,144.494 53.542 C 144.491 53.656,144.344 54.050,144.167 54.417 C 143.990 54.783,143.842 55.215,143.839 55.375 C 143.836 55.535,143.758 55.667,143.667 55.667 C 143.575 55.667,143.500 55.760,143.499 55.875 C 143.498 55.990,143.397 56.276,143.275 56.511 C 143.152 56.746,142.996 57.158,142.929 57.426 C 142.862 57.694,142.757 57.952,142.695 57.998 C 142.501 58.146,141.500 60.366,141.500 60.650 C 141.500 60.751,141.426 60.833,141.335 60.833 C 141.245 60.833,141.123 61.133,141.064 61.500 C 141.005 61.867,140.898 62.167,140.825 62.167 C 140.753 62.167,140.644 62.392,140.583 62.667 C 140.523 62.942,140.405 63.167,140.322 63.167 C 140.239 63.167,140.123 63.467,140.064 63.833 C 140.005 64.200,139.892 64.500,139.812 64.500 C 139.732 64.500,139.667 64.606,139.667 64.736 C 139.667 64.866,139.607 64.997,139.534 65.028 C 139.461 65.058,139.248 65.492,139.061 65.991 C 138.601 67.214,138.383 67.230,138.252 66.051 C 138.193 65.519,138.079 64.933,138.000 64.750 C 137.920 64.567,137.806 62.917,137.746 61.083 C 137.687 59.250,137.569 57.679,137.486 57.592 C 137.402 57.505,137.333 57.148,137.333 56.800 C 137.333 56.452,137.267 56.167,137.186 56.167 C 137.104 56.167,136.987 55.829,136.925 55.417 C 136.864 55.004,136.748 54.667,136.670 54.667 C 136.591 54.667,136.477 54.442,136.417 54.167 C 136.356 53.892,136.243 53.667,136.165 53.667 C 136.086 53.667,135.969 53.498,135.905 53.292 C 135.761 52.833,134.732 51.833,134.405 51.833 C 134.274 51.833,134.167 51.758,134.167 51.667 C 134.167 51.575,134.054 51.500,133.917 51.500 C 133.522 51.500,133.626 51.046,134.045 50.941 C 134.253 50.889,134.587 50.693,134.788 50.506 C 134.989 50.320,135.225 50.167,135.313 50.167 C 135.522 50.167,137.000 48.689,137.000 48.480 C 137.000 48.392,137.155 48.154,137.345 47.951 C 137.534 47.749,137.731 47.377,137.782 47.125 C 137.833 46.873,137.935 46.667,138.009 46.667 C 138.082 46.667,138.194 46.253,138.257 45.748 C 138.321 45.242,138.439 44.788,138.519 44.738 C 138.709 44.621,138.713 40.500,138.524 40.500 C 138.445 40.500,138.332 40.035,138.273 39.468 C 138.214 38.900,138.102 38.394,138.025 38.343 C 137.948 38.292,137.839 38.061,137.782 37.830 C 137.726 37.599,137.527 37.246,137.340 37.045 C 137.153 36.845,137.000 36.618,137.000 36.541 C 137.000 36.056,134.881 34.000,134.380 34.000 C 134.263 34.000,134.167 33.931,134.167 33.847 C 134.167 33.762,133.942 33.644,133.667 33.583 C 133.392 33.523,133.167 33.408,133.167 33.328 C 133.167 33.247,132.885 33.130,132.542 33.067 C 132.198 33.004,131.876 32.890,131.826 32.814 C 131.776 32.738,131.195 32.625,130.535 32.564 C 129.874 32.502,129.333 32.388,129.333 32.309 C 129.333 32.231,122.583 32.167,114.333 32.167 L 99.333 32.167 99.333 50.917 M183.833 50.917 L 183.833 69.667 189.000 69.667 L 194.167 69.667 194.167 64.083 C 194.167 60.200,194.221 58.500,194.346 58.500 C 194.445 58.500,194.864 58.162,195.276 57.750 C 195.689 57.337,196.090 57.000,196.169 57.000 C 196.247 57.000,196.723 56.606,197.228 56.125 C 197.732 55.644,198.356 55.087,198.614 54.887 C 198.872 54.688,199.241 54.377,199.433 54.196 C 199.782 53.868,199.783 53.868,200.183 54.377 C 200.403 54.658,200.790 55.097,201.042 55.355 C 201.294 55.612,201.500 55.889,201.500 55.970 C 201.500 56.051,201.669 56.310,201.875 56.545 C 202.675 57.457,203.051 57.924,203.312 58.329 C 203.461 58.561,203.752 58.909,203.958 59.102 C 204.165 59.296,204.333 59.525,204.333 59.610 C 204.333 59.696,204.555 59.950,204.826 60.174 C 205.097 60.399,205.322 60.663,205.326 60.760 C 205.334 60.950,205.974 61.773,206.708 62.535 C 206.960 62.797,207.167 63.081,207.167 63.167 C 207.167 63.252,207.392 63.552,207.667 63.833 C 207.942 64.115,208.167 64.403,208.167 64.475 C 208.167 64.546,208.392 64.820,208.667 65.083 C 208.942 65.347,209.167 65.627,209.167 65.706 C 209.167 65.785,209.342 66.014,209.556 66.216 C 209.770 66.418,210.014 66.706,210.098 66.855 C 210.292 67.201,211.262 68.393,211.936 69.112 L 212.456 69.667 219.311 69.667 C 227.366 69.667,227.055 69.790,224.968 67.425 C 224.126 66.470,223.750 66.024,223.333 65.485 C 223.104 65.188,222.673 64.693,222.375 64.384 C 222.077 64.075,221.833 63.782,221.833 63.733 C 221.833 63.683,221.740 63.540,221.625 63.415 C 221.510 63.290,221.192 62.916,220.917 62.583 C 220.642 62.251,220.135 61.684,219.792 61.323 C 219.448 60.962,219.166 60.610,219.165 60.542 C 219.163 60.473,218.882 60.106,218.540 59.727 C 218.197 59.347,217.654 58.719,217.333 58.330 C 216.639 57.488,216.319 57.102,215.708 56.365 C 215.456 56.061,214.969 55.508,214.625 55.136 C 214.281 54.764,214.000 54.400,214.000 54.326 C 214.000 54.252,213.775 53.967,213.500 53.692 C 213.225 53.418,212.745 52.859,212.434 52.450 C 211.763 51.572,211.237 50.944,210.667 50.341 C 210.438 50.099,210.063 49.623,209.833 49.284 C 209.604 48.944,209.289 48.625,209.134 48.575 C 208.978 48.524,208.799 48.322,208.737 48.124 C 208.674 47.927,208.523 47.666,208.402 47.545 C 208.142 47.285,208.268 46.833,208.600 46.833 C 208.727 46.833,209.174 46.496,209.592 46.083 C 210.011 45.671,210.392 45.333,210.439 45.333 C 210.487 45.333,210.735 45.127,210.990 44.875 C 211.762 44.113,212.490 43.500,212.624 43.499 C 212.693 43.498,213.048 43.160,213.411 42.749 C 213.775 42.337,214.137 42.000,214.215 42.000 C 214.293 42.000,214.459 41.906,214.584 41.792 C 214.709 41.677,215.156 41.283,215.577 40.917 C 215.998 40.550,216.676 39.936,217.083 39.553 C 217.490 39.169,217.939 38.791,218.081 38.711 C 218.340 38.566,219.529 37.522,220.931 36.208 C 221.346 35.819,221.744 35.500,221.814 35.500 C 221.884 35.500,222.364 35.087,222.880 34.583 C 223.396 34.079,223.866 33.667,223.924 33.667 C 224.165 33.667,225.000 32.729,225.000 32.459 C 225.000 32.185,224.560 32.167,218.000 32.167 C 213.814 32.167,211.000 32.229,211.000 32.321 C 211.000 32.406,210.885 32.500,210.744 32.529 C 210.491 32.583,208.521 34.385,205.643 37.196 C 204.828 37.991,203.865 38.878,203.502 39.165 C 203.138 39.453,202.283 40.228,201.600 40.886 C 200.918 41.545,199.899 42.496,199.335 43.000 C 197.812 44.363,196.833 45.342,196.833 45.502 C 196.833 45.580,196.693 45.689,196.522 45.743 C 196.350 45.798,195.779 46.253,195.253 46.754 C 194.726 47.256,194.267 47.667,194.231 47.667 C 194.196 47.667,194.167 44.179,194.167 39.917 L 194.167 32.167 189.000 32.167 L 183.833 32.167 183.833 50.917 M230.667 50.917 L 230.667 69.667 244.833 69.667 C 252.625 69.667,259.000 69.603,259.000 69.525 C 259.000 69.447,259.763 69.337,260.695 69.280 C 261.627 69.224,262.467 69.100,262.561 69.005 C 262.656 68.911,262.906 68.833,263.117 68.833 C 263.327 68.833,263.500 68.767,263.500 68.685 C 263.500 68.604,263.765 68.487,264.088 68.427 C 264.768 68.299,266.687 67.348,266.883 67.042 C 266.957 66.927,267.088 66.833,267.175 66.833 C 267.364 66.833,268.667 65.556,268.667 65.370 C 268.667 65.299,268.817 65.112,269.000 64.955 C 269.183 64.798,269.333 64.557,269.333 64.418 C 269.333 64.280,269.402 64.167,269.487 64.167 C 269.571 64.167,269.690 63.942,269.750 63.667 C 269.810 63.392,269.920 63.167,269.994 63.167 C 270.068 63.167,270.179 62.831,270.241 62.421 C 270.302 62.010,270.423 61.631,270.510 61.577 C 270.596 61.524,270.667 61.147,270.667 60.740 C 270.667 60.333,270.742 60.000,270.833 60.000 C 270.933 60.000,271.000 59.364,271.000 58.427 C 271.000 57.557,270.925 56.807,270.833 56.750 C 270.742 56.693,270.667 56.314,270.667 55.907 C 270.667 55.500,270.592 55.167,270.500 55.167 C 270.408 55.167,270.333 55.017,270.333 54.835 C 270.333 54.439,269.654 52.833,269.487 52.833 C 269.422 52.833,269.322 52.646,269.265 52.417 C 269.207 52.188,269.087 52.000,268.997 52.000 C 268.907 52.000,268.833 51.904,268.833 51.786 C 268.833 51.669,268.487 51.275,268.063 50.911 C 267.640 50.548,267.154 50.121,266.984 49.963 C 266.814 49.804,266.485 49.627,266.253 49.569 C 266.020 49.511,265.789 49.396,265.739 49.315 C 265.688 49.233,265.483 49.158,265.282 49.147 C 265.000 49.132,264.983 49.111,265.208 49.052 C 265.369 49.010,265.500 48.914,265.500 48.839 C 265.500 48.764,265.683 48.657,265.906 48.601 C 266.129 48.545,266.359 48.349,266.417 48.166 C 266.475 47.983,266.630 47.833,266.761 47.833 C 266.893 47.833,267.000 47.755,267.000 47.659 C 267.000 47.563,267.188 47.310,267.417 47.098 C 267.646 46.886,267.833 46.627,267.833 46.523 C 267.833 46.418,267.894 46.333,267.969 46.333 C 268.166 46.333,268.833 44.733,268.833 44.258 C 268.833 44.035,268.908 43.807,269.000 43.750 C 269.213 43.618,269.221 39.928,269.009 39.539 C 268.922 39.380,268.804 38.894,268.748 38.458 C 268.692 38.023,268.576 37.667,268.490 37.667 C 268.404 37.667,268.333 37.547,268.333 37.401 C 268.333 36.718,266.011 34.000,265.429 34.000 C 265.285 34.000,265.167 33.930,265.167 33.846 C 265.167 33.647,264.325 33.227,263.627 33.078 C 263.328 33.014,262.999 32.894,262.895 32.810 C 262.792 32.727,262.098 32.612,261.354 32.555 C 260.609 32.498,260.000 32.387,260.000 32.309 C 260.000 32.231,253.400 32.167,245.333 32.167 L 230.667 32.167 230.667 50.917 M283.750 32.667 C 283.690 32.942,283.583 33.167,283.514 33.167 C 283.444 33.167,283.247 33.579,283.076 34.083 C 282.905 34.587,282.711 35.000,282.645 35.000 C 282.580 35.000,282.476 35.230,282.414 35.511 C 282.352 35.792,282.197 36.224,282.069 36.470 C 281.940 36.715,281.835 37.010,281.834 37.125 C 281.834 37.240,281.759 37.333,281.669 37.333 C 281.578 37.333,281.456 37.633,281.397 38.000 C 281.339 38.367,281.231 38.667,281.159 38.667 C 281.086 38.667,280.977 38.892,280.917 39.167 C 280.856 39.442,280.738 39.667,280.653 39.667 C 280.569 39.667,280.500 39.812,280.500 39.990 C 280.500 40.168,280.431 40.356,280.346 40.409 C 280.262 40.461,280.143 40.728,280.083 41.002 C 280.023 41.276,279.905 41.500,279.822 41.500 C 279.739 41.500,279.623 41.800,279.564 42.167 C 279.505 42.533,279.398 42.833,279.325 42.833 C 279.253 42.833,279.144 43.058,279.083 43.333 C 279.023 43.608,278.908 43.833,278.828 43.833 C 278.747 43.833,278.633 44.096,278.572 44.417 C 278.512 44.737,278.396 45.000,278.315 45.000 C 278.233 45.000,278.167 45.150,278.167 45.333 C 278.167 45.517,278.095 45.667,278.008 45.667 C 277.920 45.667,277.799 45.929,277.739 46.250 C 277.679 46.571,277.566 46.833,277.489 46.833 C 277.412 46.833,277.299 47.096,277.239 47.417 C 277.179 47.737,277.066 48.000,276.989 48.000 C 276.912 48.000,276.799 48.262,276.739 48.583 C 276.679 48.904,276.566 49.167,276.489 49.167 C 276.412 49.167,276.299 49.429,276.239 49.750 C 276.179 50.071,276.063 50.333,275.981 50.333 C 275.900 50.333,275.833 50.427,275.833 50.542 C 275.832 50.656,275.608 51.200,275.333 51.750 C 275.059 52.300,274.834 52.881,274.834 53.042 C 274.834 53.202,274.758 53.333,274.667 53.333 C 274.575 53.333,274.500 53.427,274.499 53.542 C 274.498 53.656,274.393 53.951,274.265 54.197 C 274.136 54.443,273.981 54.874,273.919 55.155 C 273.857 55.437,273.744 55.667,273.667 55.667 C 273.590 55.667,273.477 55.891,273.417 56.165 C 273.357 56.439,273.238 56.706,273.154 56.758 C 273.069 56.810,273.000 56.999,273.000 57.177 C 273.000 57.354,272.925 57.500,272.833 57.500 C 272.742 57.500,272.666 57.594,272.666 57.708 C 272.665 57.823,272.560 58.118,272.431 58.364 C 272.303 58.610,272.148 59.041,272.086 59.322 C 272.024 59.603,271.904 59.833,271.820 59.833 C 271.736 59.833,271.666 59.927,271.666 60.042 C 271.665 60.156,271.564 60.442,271.441 60.678 C 271.319 60.913,271.163 61.325,271.096 61.593 C 271.029 61.861,270.923 62.118,270.862 62.165 C 270.685 62.299,270.167 63.486,270.167 63.756 C 270.167 63.890,270.092 64.000,270.000 64.000 C 269.908 64.000,269.831 64.094,269.828 64.208 C 269.825 64.323,269.677 64.717,269.500 65.083 C 269.323 65.450,269.175 65.881,269.172 66.042 C 269.169 66.202,269.095 66.333,269.008 66.333 C 268.920 66.333,268.799 66.596,268.739 66.917 C 268.679 67.237,268.566 67.500,268.489 67.500 C 268.412 67.500,268.299 67.762,268.239 68.083 C 268.179 68.404,268.063 68.667,267.981 68.667 C 267.900 68.667,267.833 68.893,267.833 69.169 L 267.833 69.671 273.375 69.627 L 278.917 69.583 279.076 69.042 C 279.164 68.744,279.292 68.500,279.360 68.500 C 279.429 68.500,279.534 68.237,279.594 67.917 C 279.655 67.596,279.764 67.333,279.837 67.333 C 279.911 67.333,280.021 67.033,280.083 66.667 C 280.145 66.300,280.261 66.000,280.340 66.000 C 280.420 66.000,280.534 65.737,280.594 65.417 C 280.655 65.096,280.770 64.833,280.852 64.833 C 280.933 64.833,281.000 64.683,281.000 64.500 C 281.000 64.317,281.074 64.167,281.165 64.167 C 281.255 64.167,281.377 63.867,281.436 63.500 C 281.495 63.133,281.602 62.833,281.675 62.833 C 281.747 62.833,281.856 62.608,281.917 62.333 L 282.026 61.833 290.235 61.833 L 298.444 61.833 298.622 62.208 C 299.046 63.104,299.333 63.812,299.333 63.964 C 299.333 64.055,299.445 64.343,299.582 64.606 C 299.719 64.869,299.832 65.215,299.832 65.375 C 299.833 65.535,299.902 65.667,299.987 65.667 C 300.071 65.667,300.191 65.897,300.252 66.178 C 300.314 66.459,300.470 66.890,300.598 67.136 C 300.726 67.382,300.832 67.662,300.832 67.758 C 300.834 68.034,301.237 68.831,301.375 68.832 C 301.444 68.833,301.500 69.021,301.500 69.250 L 301.500 69.667 307.167 69.667 L 312.833 69.667 312.833 69.167 C 312.833 68.892,312.767 68.667,312.685 68.667 C 312.604 68.667,312.488 68.404,312.428 68.083 C 312.367 67.762,312.247 67.500,312.159 67.500 C 312.072 67.500,312.000 67.392,312.000 67.260 C 312.000 67.128,311.775 66.586,311.500 66.056 C 311.225 65.526,311.000 64.959,311.000 64.796 C 311.000 64.633,310.931 64.500,310.847 64.500 C 310.762 64.500,310.644 64.275,310.583 64.000 C 310.523 63.725,310.404 63.500,310.320 63.500 C 310.236 63.500,310.164 63.369,310.161 63.208 C 310.158 63.048,310.010 62.617,309.833 62.250 C 309.656 61.883,309.509 61.490,309.506 61.375 C 309.503 61.260,309.425 61.167,309.333 61.167 C 309.242 61.167,309.167 61.017,309.167 60.833 C 309.167 60.650,309.100 60.500,309.019 60.500 C 308.937 60.500,308.821 60.237,308.761 59.917 C 308.701 59.596,308.586 59.333,308.506 59.333 C 308.425 59.333,308.309 59.103,308.248 58.822 C 308.186 58.541,308.030 58.110,307.902 57.864 C 307.774 57.618,307.668 57.323,307.668 57.208 C 307.667 57.094,307.600 57.000,307.518 57.000 C 307.436 57.000,307.318 56.796,307.256 56.547 C 307.122 56.015,306.329 54.287,306.163 54.167 C 306.100 54.121,305.996 53.802,305.933 53.458 C 305.870 53.115,305.747 52.833,305.659 52.833 C 305.572 52.833,305.500 52.740,305.499 52.625 C 305.498 52.510,305.393 52.215,305.265 51.970 C 305.136 51.724,304.981 51.292,304.919 51.011 C 304.857 50.730,304.744 50.500,304.667 50.500 C 304.590 50.500,304.477 50.276,304.417 50.002 C 304.357 49.728,304.238 49.461,304.154 49.409 C 304.069 49.356,304.000 49.168,304.000 48.990 C 304.000 48.812,303.931 48.667,303.847 48.667 C 303.762 48.667,303.644 48.442,303.583 48.167 C 303.523 47.892,303.411 47.667,303.335 47.667 C 303.258 47.667,303.145 47.367,303.083 47.000 C 303.021 46.633,302.908 46.333,302.832 46.333 C 302.756 46.333,302.644 46.108,302.583 45.833 C 302.523 45.558,302.404 45.333,302.320 45.333 C 302.236 45.333,302.166 45.202,302.166 45.042 C 302.166 44.881,301.941 44.300,301.667 43.750 C 301.392 43.200,301.168 42.656,301.167 42.542 C 301.167 42.427,301.100 42.333,301.019 42.333 C 300.937 42.333,300.821 42.071,300.761 41.750 C 300.701 41.429,300.583 41.167,300.500 41.167 C 300.417 41.167,300.299 40.904,300.239 40.583 C 300.179 40.262,300.071 40.000,300.000 40.000 C 299.929 40.000,299.821 39.737,299.761 39.417 C 299.701 39.096,299.586 38.833,299.506 38.833 C 299.425 38.833,299.311 38.609,299.250 38.335 C 299.190 38.061,299.072 37.794,298.987 37.742 C 298.903 37.690,298.833 37.501,298.833 37.323 C 298.833 37.146,298.758 37.000,298.667 37.000 C 298.575 37.000,298.500 36.921,298.500 36.824 C 298.500 36.672,298.291 36.152,297.667 34.750 C 297.096 33.469,296.833 32.837,296.833 32.747 C 296.833 32.205,296.391 32.167,290.108 32.167 L 283.860 32.167 283.750 32.667 M313.541 50.875 L 313.583 69.583 318.708 69.627 L 323.833 69.671 323.833 57.086 C 323.833 50.164,323.876 44.500,323.929 44.500 C 324.058 44.500,324.336 44.812,324.826 45.504 C 325.341 46.233,325.479 46.405,326.023 46.996 C 326.266 47.259,326.491 47.545,326.523 47.631 C 326.609 47.855,327.338 48.786,327.875 49.357 C 328.127 49.625,328.333 49.903,328.333 49.974 C 328.333 50.121,329.034 51.001,329.708 51.702 C 329.960 51.964,330.167 52.245,330.167 52.326 C 330.167 52.408,330.392 52.699,330.667 52.974 C 330.942 53.249,331.167 53.526,331.167 53.590 C 331.167 53.709,331.851 54.563,332.588 55.364 C 332.815 55.611,333.000 55.873,333.001 55.948 C 333.001 56.022,333.226 56.323,333.501 56.616 C 333.775 56.909,334.000 57.207,334.000 57.277 C 334.000 57.348,334.170 57.558,334.377 57.745 C 334.585 57.931,334.941 58.364,335.169 58.707 C 335.397 59.050,335.640 59.332,335.708 59.332 C 335.777 59.333,335.833 59.442,335.833 59.575 C 335.833 59.708,335.929 59.877,336.046 59.950 C 336.163 60.023,336.519 60.421,336.836 60.833 C 337.154 61.246,337.489 61.681,337.582 61.801 C 337.674 61.920,337.956 62.242,338.208 62.515 C 338.460 62.788,338.667 63.069,338.667 63.140 C 338.667 63.288,339.367 64.168,340.042 64.869 C 340.294 65.131,340.500 65.415,340.500 65.500 C 340.500 65.585,340.725 65.885,341.000 66.167 C 341.275 66.448,341.500 66.722,341.500 66.775 C 341.500 66.867,342.038 67.542,342.880 68.508 C 343.083 68.741,343.333 69.079,343.435 69.258 C 343.612 69.570,343.863 69.585,349.393 69.627 L 355.167 69.671 355.167 50.919 L 355.167 32.167 350.000 32.167 L 344.833 32.167 344.833 44.667 C 344.833 56.585,344.782 57.962,344.382 56.875 C 344.323 56.715,344.100 56.418,343.887 56.216 C 343.674 56.014,343.500 55.787,343.500 55.711 C 343.500 55.571,342.964 54.837,342.500 54.341 C 342.363 54.194,342.063 53.795,341.833 53.455 C 341.604 53.114,341.360 52.835,341.292 52.834 C 341.223 52.834,341.167 52.732,341.167 52.608 C 341.167 52.484,340.998 52.190,340.792 51.955 C 340.026 51.082,339.667 50.636,339.667 50.557 C 339.667 50.513,339.573 50.378,339.458 50.259 C 339.344 50.139,339.137 49.874,339.000 49.670 C 338.862 49.466,338.545 49.063,338.294 48.775 C 338.044 48.486,337.837 48.197,337.836 48.133 C 337.835 48.068,337.646 47.828,337.417 47.598 C 337.188 47.369,337.000 47.120,337.000 47.045 C 337.000 46.969,336.850 46.779,336.667 46.622 C 336.483 46.465,336.333 46.223,336.333 46.085 C 336.333 45.947,336.277 45.833,336.208 45.833 C 336.140 45.833,335.712 45.327,335.259 44.708 C 334.805 44.090,334.336 43.523,334.217 43.450 C 334.098 43.377,334.000 43.240,334.000 43.146 C 334.000 43.053,333.906 42.872,333.792 42.744 C 333.327 42.225,333.167 42.008,333.167 41.896 C 333.167 41.831,333.058 41.659,332.925 41.514 C 331.958 40.458,331.667 40.096,331.667 39.953 C 331.667 39.862,331.488 39.623,331.269 39.420 C 331.051 39.218,330.823 38.897,330.763 38.708 C 330.703 38.519,330.544 38.322,330.410 38.271 C 330.276 38.219,330.167 38.062,330.167 37.922 C 330.167 37.782,330.110 37.665,330.042 37.663 C 329.973 37.661,329.654 37.288,329.333 36.833 C 329.012 36.379,328.694 36.006,328.625 36.004 C 328.556 36.002,328.500 35.891,328.500 35.758 C 328.500 35.625,328.402 35.457,328.283 35.383 C 328.163 35.310,327.894 34.969,327.686 34.625 C 327.477 34.281,327.237 34.000,327.153 34.000 C 327.069 34.000,327.000 33.915,327.000 33.811 C 327.000 33.707,326.821 33.456,326.603 33.253 C 326.384 33.051,326.154 32.724,326.092 32.526 L 325.978 32.167 319.738 32.167 L 313.499 32.167 313.541 50.875 M357.833 50.917 L 357.833 69.667 363.083 69.667 L 368.333 69.667 368.333 64.154 L 368.333 58.641 368.821 58.154 C 369.088 57.886,369.362 57.667,369.429 57.667 C 369.495 57.667,369.794 57.423,370.092 57.125 C 370.390 56.827,370.879 56.396,371.178 56.168 C 371.477 55.939,372.031 55.452,372.408 55.084 C 373.557 53.967,373.754 53.907,374.336 54.503 C 374.610 54.783,374.833 55.074,374.833 55.151 C 374.833 55.289,375.295 55.859,376.208 56.848 C 376.460 57.121,376.667 57.411,376.667 57.493 C 376.667 57.574,376.892 57.866,377.167 58.141 C 377.442 58.416,377.667 58.716,377.667 58.808 C 377.667 58.900,377.854 59.123,378.083 59.304 C 378.313 59.484,378.500 59.708,378.500 59.803 C 378.500 59.897,378.725 60.199,379.000 60.474 C 379.275 60.749,379.500 61.036,379.501 61.112 C 379.501 61.188,379.726 61.490,380.001 61.783 C 380.275 62.076,380.500 62.360,380.500 62.416 C 380.500 62.471,380.670 62.681,380.879 62.883 C 381.087 63.085,381.443 63.531,381.670 63.874 C 381.897 64.217,382.140 64.498,382.208 64.499 C 382.277 64.499,382.333 64.596,382.333 64.713 C 382.333 64.830,382.465 65.041,382.625 65.182 C 382.947 65.465,383.612 66.270,384.000 66.845 C 384.137 67.049,384.456 67.432,384.708 67.697 C 384.960 67.962,385.167 68.244,385.167 68.325 C 385.167 68.405,385.428 68.740,385.747 69.069 L 386.327 69.667 393.164 69.667 C 399.257 69.667,400.000 69.638,400.000 69.406 C 400.000 68.903,399.624 68.388,398.042 66.725 C 397.744 66.412,397.500 66.088,397.500 66.006 C 397.500 65.924,397.256 65.597,396.958 65.279 C 396.183 64.452,395.714 63.899,395.045 63.021 C 394.722 62.597,394.279 62.085,394.062 61.883 C 393.845 61.681,393.667 61.472,393.667 61.418 C 393.667 61.303,393.430 61.012,392.792 60.341 C 392.540 60.076,392.333 59.807,392.333 59.743 C 392.333 59.680,392.033 59.327,391.667 58.961 C 391.300 58.594,391.000 58.238,391.000 58.170 C 391.000 58.102,390.756 57.776,390.458 57.446 C 389.872 56.795,389.129 55.920,388.386 55.004 C 388.128 54.686,387.804 54.303,387.667 54.153 C 387.529 54.004,387.229 53.641,387.000 53.347 C 386.164 52.276,385.741 51.773,385.292 51.321 C 385.040 51.067,384.832 50.797,384.831 50.721 C 384.829 50.597,384.486 50.191,383.008 48.566 C 382.445 47.947,382.096 47.333,382.307 47.333 C 382.391 47.333,382.840 46.977,383.305 46.542 C 384.648 45.284,386.036 44.037,386.646 43.541 C 386.956 43.289,387.566 42.746,388.003 42.333 C 388.439 41.921,389.011 41.420,389.273 41.220 C 389.995 40.671,390.500 40.171,390.500 40.005 C 390.500 39.923,390.645 39.810,390.822 39.754 C 390.999 39.698,391.642 39.167,392.252 38.576 C 392.861 37.984,393.413 37.500,393.479 37.500 C 393.544 37.500,394.061 37.050,394.626 36.500 C 395.192 35.950,395.695 35.500,395.744 35.500 C 395.793 35.500,396.249 35.087,396.757 34.583 C 397.265 34.079,397.734 33.664,397.799 33.661 C 398.087 33.648,398.833 32.817,398.833 32.508 C 398.833 32.169,398.776 32.167,391.932 32.167 L 385.031 32.167 384.086 33.042 C 383.567 33.523,382.553 34.479,381.833 35.167 C 381.114 35.854,380.173 36.717,379.742 37.083 C 379.311 37.450,378.298 38.387,377.491 39.167 C 376.684 39.946,375.808 40.748,375.546 40.949 C 375.102 41.291,374.547 41.828,373.476 42.954 C 373.234 43.208,372.792 43.604,372.494 43.833 C 372.197 44.063,371.206 44.981,370.292 45.875 C 369.379 46.769,368.564 47.500,368.482 47.500 C 368.397 47.500,368.333 44.232,368.333 39.833 L 368.333 32.167 363.083 32.167 L 357.833 32.167 357.833 50.917 M254.167 39.476 C 254.167 39.554,254.673 39.666,255.291 39.723 C 255.909 39.781,256.440 39.905,256.471 39.998 C 256.502 40.091,256.594 40.167,256.675 40.167 C 256.950 40.167,257.821 41.142,257.929 41.572 C 257.988 41.807,258.103 42.000,258.185 42.000 C 258.266 42.000,258.333 42.563,258.333 43.250 C 258.333 43.972,258.263 44.500,258.167 44.500 C 258.075 44.500,258.000 44.682,258.000 44.905 C 258.000 45.127,257.887 45.422,257.750 45.560 C 257.612 45.697,257.499 45.871,257.499 45.946 C 257.496 46.215,256.174 46.833,255.602 46.833 C 255.282 46.833,254.973 46.908,254.917 47.000 C 254.851 47.107,252.359 47.167,247.990 47.167 L 241.167 47.167 241.167 43.250 L 241.167 39.333 247.667 39.333 C 251.242 39.333,254.167 39.397,254.167 39.476 M124.958 39.958 C 124.997 40.073,125.134 40.167,125.264 40.167 C 125.394 40.167,125.500 40.242,125.500 40.333 C 125.500 40.425,125.592 40.500,125.704 40.500 C 125.958 40.500,127.000 41.653,127.000 41.933 C 127.000 42.046,127.094 42.170,127.208 42.208 C 127.525 42.314,127.470 45.283,127.139 45.872 C 126.558 46.910,125.309 48.035,124.638 48.125 C 124.283 48.173,123.952 48.277,123.903 48.356 C 123.854 48.435,120.706 48.500,116.907 48.500 L 110.000 48.500 110.000 44.071 L 110.000 39.642 117.445 39.696 C 123.213 39.738,124.905 39.797,124.958 39.958 M160.443 41.628 C 160.549 41.695,160.689 42.032,160.753 42.375 C 160.818 42.719,160.930 43.000,161.004 43.000 C 161.077 43.000,161.188 43.300,161.250 43.667 C 161.312 44.033,161.431 44.333,161.515 44.333 C 161.598 44.333,161.667 44.465,161.668 44.625 C 161.668 44.785,161.774 45.118,161.902 45.364 C 162.030 45.610,162.186 46.041,162.248 46.322 C 162.309 46.603,162.429 46.833,162.513 46.833 C 162.598 46.833,162.667 47.021,162.667 47.250 C 162.667 47.479,162.736 47.667,162.820 47.667 C 162.904 47.667,163.024 47.897,163.086 48.178 C 163.148 48.459,163.303 48.890,163.431 49.136 C 163.560 49.382,163.665 49.715,163.666 49.875 C 163.666 50.035,163.735 50.167,163.819 50.167 C 163.902 50.167,164.021 50.467,164.083 50.833 C 164.145 51.200,164.258 51.500,164.335 51.500 C 164.411 51.500,164.527 51.741,164.591 52.036 C 164.656 52.331,164.773 52.687,164.850 52.828 C 165.061 53.209,165.500 54.353,165.500 54.520 C 165.500 54.601,163.187 54.667,160.333 54.667 C 157.479 54.667,155.167 54.601,155.167 54.520 C 155.167 54.348,155.609 53.202,155.826 52.812 C 155.909 52.663,156.028 52.269,156.090 51.937 C 156.153 51.605,156.264 51.333,156.337 51.333 C 156.411 51.333,156.521 51.033,156.583 50.667 C 156.645 50.300,156.761 50.000,156.840 50.000 C 156.920 50.000,157.037 49.719,157.100 49.375 C 157.163 49.031,157.260 48.712,157.316 48.667 C 157.439 48.565,157.836 47.554,157.953 47.042 C 158.000 46.835,158.099 46.667,158.171 46.667 C 158.244 46.667,158.355 46.367,158.417 46.000 C 158.479 45.633,158.597 45.333,158.679 45.333 C 158.762 45.333,158.877 45.033,158.936 44.667 C 158.995 44.300,159.101 44.000,159.173 44.000 C 159.245 44.000,159.355 43.700,159.417 43.333 C 159.479 42.967,159.589 42.667,159.663 42.667 C 159.736 42.667,159.845 42.404,159.906 42.083 C 160.018 41.487,160.105 41.413,160.443 41.628 M290.500 41.833 C 290.500 42.017,290.575 42.167,290.667 42.167 C 290.758 42.167,290.833 42.279,290.833 42.417 C 290.833 42.554,290.908 42.667,291.000 42.667 C 291.092 42.667,291.167 42.835,291.168 43.042 C 291.168 43.248,291.281 43.631,291.418 43.894 C 291.555 44.157,291.667 44.457,291.668 44.561 C 291.668 44.665,291.774 44.951,291.902 45.197 C 292.030 45.443,292.186 45.874,292.248 46.155 C 292.309 46.437,292.429 46.667,292.513 46.667 C 292.598 46.667,292.667 46.798,292.668 46.958 C 292.668 47.119,292.774 47.451,292.902 47.697 C 293.030 47.943,293.186 48.373,293.247 48.654 C 293.309 48.934,293.428 49.206,293.513 49.258 C 293.597 49.310,293.667 49.499,293.667 49.677 C 293.667 49.854,293.741 50.000,293.831 50.000 C 293.922 50.000,294.044 50.300,294.103 50.667 C 294.161 51.033,294.266 51.333,294.336 51.333 C 294.406 51.333,294.512 51.596,294.572 51.917 C 294.633 52.237,294.744 52.500,294.820 52.500 C 294.895 52.500,295.005 52.800,295.064 53.167 C 295.123 53.533,295.236 53.833,295.316 53.833 C 295.396 53.833,295.497 54.021,295.541 54.250 L 295.620 54.667 290.237 54.667 L 284.853 54.667 285.092 54.208 C 285.224 53.956,285.332 53.655,285.332 53.539 C 285.333 53.424,285.404 53.199,285.489 53.039 C 285.873 52.327,286.494 50.876,286.594 50.458 C 286.654 50.206,286.760 50.000,286.830 50.000 C 286.900 50.000,287.005 49.700,287.064 49.333 C 287.123 48.967,287.238 48.667,287.321 48.667 C 287.403 48.667,287.521 48.367,287.583 48.000 C 287.645 47.633,287.756 47.333,287.829 47.333 C 287.903 47.333,288.012 47.071,288.072 46.750 C 288.133 46.429,288.253 46.167,288.341 46.167 C 288.428 46.167,288.500 45.979,288.500 45.750 C 288.500 45.521,288.574 45.333,288.665 45.333 C 288.755 45.333,288.877 45.033,288.936 44.667 C 288.995 44.300,289.107 44.000,289.186 44.000 C 289.265 44.000,289.377 43.700,289.436 43.333 C 289.495 42.967,289.605 42.667,289.680 42.667 C 289.756 42.667,289.867 42.404,289.928 42.083 C 290.044 41.462,290.500 41.263,290.500 41.833 M256.238 53.981 C 256.288 54.062,256.668 54.179,257.081 54.241 C 257.495 54.303,257.833 54.427,257.833 54.515 C 257.833 54.604,257.965 54.727,258.125 54.788 C 258.780 55.039,259.500 56.226,259.500 57.057 C 259.500 57.290,259.575 57.527,259.667 57.583 C 259.871 57.710,259.888 58.447,259.689 58.570 C 259.609 58.619,259.505 59.010,259.456 59.438 C 259.403 59.908,259.262 60.276,259.101 60.367 C 258.954 60.449,258.833 60.655,258.833 60.824 C 258.833 61.012,258.672 61.171,258.417 61.235 C 258.188 61.293,258.000 61.412,258.000 61.501 C 258.000 61.590,257.700 61.711,257.333 61.769 C 256.967 61.828,256.667 61.941,256.667 62.021 C 256.667 62.102,253.215 62.167,248.917 62.167 L 241.167 62.167 241.167 58.000 L 241.167 53.833 248.657 53.833 C 252.819 53.833,256.187 53.899,256.238 53.981 " stroke="none" fill="#fcfcfb" fill-rule="evenodd"></path><path id="path1" d="M2.333 48.339 C 2.333 48.929,5.995 53.697,8.945 56.946 C 12.081 60.403,17.302 64.581,21.417 66.928 C 22.381 67.477,26.448 69.500,26.590 69.500 C 26.642 69.500,27.000 69.643,27.384 69.817 C 28.588 70.364,31.458 71.315,32.968 71.667 C 33.765 71.853,34.717 72.076,35.083 72.162 C 38.944 73.072,48.844 73.465,49.995 72.753 C 50.047 72.721,50.687 72.613,51.419 72.513 C 52.753 72.330,54.719 71.921,55.500 71.665 C 55.729 71.590,56.721 71.283,57.705 70.982 L 59.493 70.436 61.398 68.510 C 64.416 65.457,65.816 63.779,65.125 64.044 C 65.010 64.088,64.504 64.265,64.000 64.437 C 63.496 64.609,63.046 64.799,63.000 64.860 C 62.954 64.920,62.635 65.022,62.291 65.087 C 61.948 65.151,61.667 65.262,61.667 65.333 C 61.667 65.404,61.423 65.508,61.125 65.563 C 60.336 65.711,60.189 65.755,60.060 65.884 C 59.997 65.948,59.784 66.000,59.589 66.000 C 59.393 66.000,59.162 66.067,59.075 66.149 C 58.912 66.302,57.944 66.555,56.333 66.864 C 55.829 66.961,55.342 67.100,55.250 67.173 C 55.092 67.298,52.724 67.604,52.458 67.533 C 52.390 67.515,52.333 67.566,52.333 67.647 C 52.333 67.776,50.502 67.944,48.115 68.033 C 47.675 68.050,47.276 68.124,47.230 68.198 C 47.119 68.379,43.377 68.373,43.266 68.192 C 43.217 68.114,42.707 68.040,42.131 68.027 C 40.152 67.984,37.750 67.792,37.583 67.665 C 37.492 67.594,36.798 67.483,36.042 67.418 C 35.285 67.352,34.667 67.239,34.667 67.166 C 34.667 67.093,34.217 66.980,33.666 66.917 C 33.116 66.853,32.628 66.738,32.580 66.662 C 32.533 66.586,32.083 66.472,31.581 66.409 C 31.078 66.346,30.667 66.229,30.667 66.147 C 30.667 66.066,30.484 66.000,30.260 66.000 C 30.036 66.000,29.811 65.932,29.759 65.848 C 29.707 65.764,29.365 65.645,28.999 65.583 C 28.633 65.521,28.333 65.412,28.333 65.340 C 28.333 65.268,28.033 65.161,27.667 65.103 C 27.300 65.044,27.000 64.922,27.000 64.831 C 27.000 64.741,26.944 64.679,26.875 64.695 C 26.607 64.755,25.500 64.455,25.500 64.322 C 25.500 64.245,25.237 64.133,24.917 64.072 C 24.596 64.012,24.333 63.913,24.333 63.851 C 24.333 63.790,23.958 63.595,23.500 63.417 C 23.042 63.239,22.667 63.038,22.667 62.971 C 22.667 62.904,22.404 62.799,22.083 62.739 C 21.762 62.679,21.500 62.569,21.500 62.495 C 21.500 62.421,21.275 62.310,21.000 62.250 C 20.725 62.190,20.499 62.090,20.497 62.028 C 20.496 61.967,20.102 61.729,19.622 61.500 C 19.143 61.271,18.696 60.999,18.629 60.897 C 18.562 60.794,18.281 60.616,18.004 60.502 C 17.727 60.387,17.500 60.227,17.500 60.146 C 17.500 60.066,17.399 60.000,17.276 60.000 C 17.152 60.000,16.878 59.850,16.667 59.667 C 16.455 59.483,16.181 59.333,16.058 59.333 C 15.934 59.333,15.833 59.258,15.833 59.167 C 15.833 59.075,15.718 59.000,15.578 59.000 C 15.438 59.000,15.280 58.887,15.227 58.750 C 15.174 58.612,15.043 58.500,14.935 58.500 C 14.738 58.500,14.037 58.001,13.471 57.458 C 13.304 57.298,13.094 57.167,13.006 57.167 C 12.917 57.167,12.615 56.942,12.333 56.667 C 12.052 56.392,11.761 56.167,11.686 56.167 C 11.548 56.167,10.992 55.693,9.728 54.500 C 9.349 54.142,9.005 53.884,8.963 53.926 C 8.921 53.968,8.631 53.741,8.318 53.422 C 7.618 52.707,7.807 52.895,5.468 50.594 C 4.397 49.540,3.328 48.630,3.093 48.571 C 2.859 48.512,2.667 48.397,2.667 48.315 C 2.667 48.234,2.592 48.167,2.500 48.167 C 2.408 48.167,2.333 48.244,2.333 48.339 M77.083 60.734 C 76.755 61.127,76.479 61.701,76.572 61.794 C 76.624 61.846,76.685 61.858,76.708 61.819 C 77.289 60.851,77.504 60.228,77.083 60.734 M73.667 67.167 C 73.534 67.248,73.482 67.371,73.549 67.438 C 73.617 67.506,73.760 67.474,73.867 67.367 C 74.118 67.115,73.978 66.974,73.667 67.167 M70.929 71.429 C 70.631 71.726,70.586 72.000,70.833 72.000 C 70.925 72.000,71.000 71.930,71.000 71.845 C 71.000 71.760,71.118 71.573,71.262 71.429 C 71.406 71.285,71.449 71.167,71.357 71.167 C 71.265 71.167,71.073 71.285,70.929 71.429 M66.248 77.427 C 65.818 77.846,65.512 78.234,65.568 78.290 C 65.656 78.378,67.167 76.900,67.167 76.727 C 67.167 76.574,66.975 76.720,66.248 77.427 M38.667 79.000 C 38.667 79.092,38.817 79.167,39.000 79.167 C 39.183 79.167,39.333 79.092,39.333 79.000 C 39.333 78.908,39.183 78.833,39.000 78.833 C 38.817 78.833,38.667 78.908,38.667 79.000 M41.333 79.500 C 41.333 79.592,41.488 79.667,41.677 79.667 C 41.865 79.667,41.973 79.592,41.917 79.500 C 41.860 79.408,41.706 79.333,41.573 79.333 C 41.441 79.333,41.333 79.408,41.333 79.500 " stroke="none" fill="#fcd44d" fill-rule="evenodd"></path><path id="path2" d="M3.462 50.417 C 3.834 50.967,4.373 51.679,4.659 52.000 C 4.946 52.321,4.721 51.946,4.159 51.167 C 2.932 49.466,2.520 49.023,3.462 50.417 M0.248 50.160 C 0.407 50.663,0.809 51.083,0.966 50.914 C 1.031 50.844,0.990 50.754,0.875 50.713 C 0.760 50.672,0.667 50.542,0.667 50.423 C 0.667 50.305,0.543 50.105,0.393 49.980 C 0.147 49.777,0.132 49.796,0.248 50.160 M1.121 51.625 C 1.292 51.877,1.615 52.364,1.841 52.707 C 2.066 53.050,2.306 53.332,2.375 53.332 C 2.611 53.334,2.494 53.083,1.997 52.519 C 1.724 52.209,1.500 51.885,1.500 51.799 C 1.500 51.622,1.080 51.167,0.917 51.167 C 0.859 51.167,0.950 51.373,1.121 51.625 M5.763 53.427 C 6.726 54.670,7.299 55.333,7.410 55.333 C 7.464 55.333,7.085 54.827,6.567 54.208 C 5.360 52.766,4.919 52.338,5.763 53.427 M2.503 53.625 C 2.507 53.853,2.814 54.242,2.912 54.144 C 3.043 54.013,2.834 53.500,2.649 53.500 C 2.567 53.500,2.501 53.556,2.503 53.625 M3.991 55.708 C 4.270 56.006,4.499 56.305,4.499 56.373 C 4.500 56.557,5.052 57.167,5.218 57.167 C 5.297 57.167,5.111 56.848,4.806 56.459 C 3.928 55.341,3.768 55.167,3.621 55.167 C 3.545 55.167,3.712 55.410,3.991 55.708 M8.471 56.608 C 9.645 57.962,11.993 60.230,13.342 61.313 C 13.955 61.806,13.871 61.704,13.083 60.999 C 12.442 60.425,10.909 58.934,9.677 57.686 C 8.444 56.438,7.902 55.953,8.471 56.608 M78.775 56.372 C 78.721 56.577,78.741 56.807,78.818 56.885 C 78.895 56.962,78.992 56.794,79.034 56.513 C 79.120 55.924,78.921 55.815,78.775 56.372 M78.284 57.625 C 78.202 58.053,78.256 58.312,78.393 58.153 C 78.550 57.971,78.655 57.167,78.523 57.167 C 78.440 57.167,78.333 57.373,78.284 57.625 M5.333 57.444 C 5.333 57.688,6.164 58.558,6.283 58.439 C 6.337 58.385,6.145 58.100,5.857 57.806 C 5.569 57.511,5.333 57.348,5.333 57.444 M77.833 58.736 C 77.833 58.866,77.764 58.997,77.679 59.028 C 77.442 59.113,77.262 60.000,77.482 60.000 C 77.584 60.000,77.672 59.944,77.679 59.875 C 77.730 59.381,77.840 59.081,77.991 59.031 C 78.215 58.956,78.222 58.500,78.000 58.500 C 77.908 58.500,77.833 58.606,77.833 58.736 M6.667 59.069 C 6.667 59.236,8.003 60.553,8.087 60.469 C 8.188 60.368,6.972 59.000,6.782 59.000 C 6.719 59.000,6.667 59.031,6.667 59.069 M76.520 61.340 C 76.211 61.985,76.007 62.563,76.069 62.624 C 76.130 62.685,76.223 62.570,76.276 62.368 C 76.329 62.165,76.443 62.000,76.529 62.000 C 76.616 62.000,76.642 61.928,76.588 61.840 C 76.486 61.676,76.756 61.104,77.125 60.703 C 77.357 60.451,77.401 60.167,77.208 60.167 C 77.140 60.167,76.830 60.695,76.520 61.340 M8.528 61.271 C 9.624 62.463,11.912 64.667,12.054 64.667 C 12.134 64.667,11.300 63.767,10.201 62.667 C 8.322 60.787,7.300 59.935,8.528 61.271 M14.410 62.156 C 14.542 62.369,17.167 64.382,17.167 64.270 C 17.167 64.227,16.522 63.693,15.734 63.085 C 14.945 62.477,14.350 62.059,14.410 62.156 M75.500 63.677 C 75.500 63.865,75.575 63.973,75.667 63.917 C 75.758 63.860,75.833 63.706,75.833 63.573 C 75.833 63.441,75.758 63.333,75.667 63.333 C 75.575 63.333,75.500 63.488,75.500 63.677 M65.056 64.531 C 64.859 64.808,63.973 65.815,63.087 66.768 C 62.201 67.720,61.537 68.494,61.613 68.487 C 61.905 68.458,65.616 64.228,65.474 64.085 C 65.442 64.053,65.253 64.253,65.056 64.531 M74.792 65.078 C 74.458 65.537,74.431 65.667,74.667 65.667 C 74.758 65.667,74.833 65.552,74.833 65.411 C 74.833 65.271,74.946 65.113,75.083 65.060 C 75.221 65.008,75.333 64.897,75.333 64.816 C 75.333 64.550,75.090 64.668,74.792 65.078 M12.250 65.000 C 12.307 65.092,12.421 65.167,12.504 65.167 C 12.587 65.167,12.910 65.410,13.222 65.708 C 13.855 66.314,14.830 67.136,15.583 67.701 C 15.858 67.907,16.165 68.181,16.265 68.311 C 16.364 68.440,16.547 68.512,16.670 68.471 C 16.810 68.424,16.638 68.213,16.209 67.907 C 15.832 67.637,14.841 66.835,14.006 66.125 C 12.648 64.970,11.958 64.528,12.250 65.000 M18.250 65.086 C 18.433 65.236,18.733 65.431,18.917 65.521 L 19.250 65.685 18.917 65.414 C 18.733 65.264,18.433 65.069,18.250 64.979 L 17.917 64.815 18.250 65.086 M74.166 65.875 C 74.166 65.990,73.941 66.421,73.667 66.833 C 73.135 67.634,73.068 67.833,73.333 67.833 C 73.425 67.833,73.500 67.691,73.500 67.518 C 73.500 67.344,73.612 67.159,73.750 67.106 C 73.887 67.054,74.000 66.896,74.000 66.755 C 74.000 66.615,74.075 66.500,74.167 66.500 C 74.258 66.500,74.333 66.387,74.333 66.250 C 74.333 66.112,74.413 66.000,74.510 66.000 C 74.607 66.000,74.640 65.925,74.583 65.833 C 74.438 65.599,74.167 65.626,74.166 65.875 M20.333 66.410 C 20.333 66.456,20.633 66.646,21.000 66.833 C 21.367 67.020,21.667 67.136,21.667 67.090 C 21.667 67.044,21.367 66.854,21.000 66.667 C 20.633 66.480,20.333 66.364,20.333 66.410 M73.000 68.236 C 73.000 68.366,72.906 68.506,72.792 68.547 C 72.677 68.588,72.640 68.682,72.710 68.757 C 72.780 68.831,72.946 68.748,73.080 68.571 C 73.367 68.191,73.396 68.000,73.167 68.000 C 73.075 68.000,73.000 68.106,73.000 68.236 M17.000 68.633 C 17.000 68.800,17.549 69.333,17.721 69.333 C 17.955 69.333,17.807 69.072,17.411 68.784 C 17.185 68.619,17.000 68.551,17.000 68.633 M25.333 69.083 C 25.746 69.304,26.158 69.485,26.250 69.485 C 26.342 69.485,26.079 69.304,25.667 69.083 C 25.254 68.862,24.842 68.682,24.750 68.682 C 24.658 68.682,24.921 68.862,25.333 69.083 M60.324 69.629 L 59.417 70.583 60.330 69.750 C 60.832 69.292,61.276 68.898,61.316 68.875 C 61.356 68.852,61.353 68.798,61.310 68.754 C 61.266 68.711,60.822 69.104,60.324 69.629 M18.003 69.421 C 17.999 69.648,18.635 70.187,18.727 70.035 C 18.766 69.970,18.694 69.820,18.566 69.702 C 18.438 69.584,18.332 69.546,18.331 69.618 C 18.329 69.691,18.256 69.637,18.167 69.500 C 18.078 69.362,18.004 69.327,18.003 69.421 M26.833 69.737 C 27.298 70.017,27.663 70.090,27.408 69.852 C 27.321 69.771,27.063 69.655,26.833 69.595 L 26.417 69.486 26.833 69.737 M27.833 70.139 C 27.971 70.224,28.271 70.343,28.500 70.404 C 28.790 70.482,28.840 70.469,28.667 70.361 C 28.529 70.276,28.229 70.157,28.000 70.096 C 27.710 70.018,27.660 70.031,27.833 70.139 M19.246 70.437 C 19.394 70.585,19.566 70.656,19.628 70.594 C 19.690 70.532,19.630 70.412,19.495 70.327 C 19.101 70.078,18.953 70.143,19.246 70.437 M71.250 70.843 C 70.975 71.112,70.841 71.333,70.952 71.333 C 71.173 71.333,71.833 70.685,71.833 70.469 C 71.833 70.279,71.810 70.294,71.250 70.843 M19.934 70.903 C 19.990 71.048,20.109 71.167,20.198 71.167 C 20.417 71.167,20.280 70.788,20.031 70.705 C 19.909 70.664,19.872 70.740,19.934 70.903 M57.083 71.167 L 56.750 71.310 57.083 71.319 C 57.267 71.324,57.529 71.256,57.667 71.167 C 57.998 70.953,57.582 70.953,57.083 71.167 M20.710 71.448 C 20.865 71.603,21.048 71.674,21.116 71.606 C 21.184 71.538,21.130 71.412,20.995 71.327 C 20.589 71.070,20.409 71.147,20.710 71.448 M32.333 71.667 C 32.903 71.849,33.341 71.849,32.917 71.667 C 32.733 71.588,32.433 71.526,32.250 71.528 C 31.982 71.532,31.998 71.559,32.333 71.667 M55.500 71.667 C 55.169 71.881,55.585 71.881,56.083 71.667 L 56.417 71.523 56.083 71.514 C 55.900 71.509,55.637 71.578,55.500 71.667 M70.533 71.700 C 70.298 71.935,70.272 72.167,70.481 72.167 C 70.562 72.167,70.667 72.017,70.715 71.833 C 70.817 71.444,70.801 71.433,70.533 71.700 M21.334 71.792 C 21.335 71.957,22.859 72.697,22.970 72.586 C 23.017 72.539,23.024 72.481,22.986 72.458 C 21.963 71.845,21.333 71.590,21.334 71.792 M34.083 72.080 C 34.450 72.205,34.900 72.309,35.083 72.310 L 35.417 72.312 35.083 72.180 C 34.900 72.107,34.450 72.004,34.083 71.950 L 33.417 71.853 34.083 72.080 M53.860 72.031 C 53.462 72.120,53.170 72.226,53.211 72.266 C 53.297 72.352,55.000 72.006,55.000 71.903 C 55.000 71.808,54.713 71.840,53.860 72.031 M36.083 72.483 C 36.267 72.559,36.792 72.666,37.250 72.721 C 37.763 72.783,37.923 72.770,37.667 72.687 C 37.066 72.494,35.676 72.315,36.083 72.483 M51.254 72.519 C 50.706 72.599,50.181 72.699,50.087 72.742 C 49.796 72.876,52.064 72.627,52.417 72.487 C 52.829 72.323,52.546 72.331,51.254 72.519 M70.042 72.593 C 69.796 72.860,69.776 73.000,69.982 73.000 C 70.124 73.000,70.391 72.499,70.296 72.410 C 70.271 72.386,70.156 72.469,70.042 72.593 M23.167 72.833 C 23.167 72.925,23.236 73.000,23.321 73.000 C 23.407 73.000,23.598 73.121,23.746 73.270 C 23.894 73.418,24.060 73.495,24.115 73.441 C 24.217 73.338,23.514 72.682,23.292 72.672 C 23.223 72.669,23.167 72.742,23.167 72.833 M39.417 73.010 C 40.069 73.144,42.790 73.225,42.653 73.107 C 42.615 73.073,41.721 73.007,40.667 72.960 C 39.462 72.905,38.998 72.924,39.417 73.010 M47.250 73.000 L 45.917 73.106 47.167 73.116 C 47.854 73.122,48.642 73.070,48.917 73.000 C 49.533 72.843,49.233 72.843,47.250 73.000 M43.708 73.288 C 44.052 73.324,44.615 73.324,44.958 73.288 C 45.302 73.252,45.021 73.223,44.333 73.223 C 43.646 73.223,43.365 73.252,43.708 73.288 M24.686 73.773 C 24.896 74.027,25.333 74.081,25.333 73.853 C 25.333 73.772,25.145 73.670,24.915 73.626 C 24.577 73.561,24.533 73.589,24.686 73.773 M25.500 74.144 C 25.500 74.340,26.147 74.576,26.290 74.432 C 26.418 74.304,26.332 74.233,25.875 74.093 C 25.659 74.026,25.500 74.048,25.500 74.144 M68.623 74.544 C 68.241 75.015,68.418 75.151,68.833 74.705 C 69.015 74.510,69.106 74.315,69.036 74.272 C 68.965 74.229,68.780 74.351,68.623 74.544 M27.500 75.149 C 27.500 75.250,27.644 75.333,27.820 75.333 C 27.996 75.333,28.277 75.382,28.445 75.441 C 28.658 75.517,28.700 75.495,28.583 75.370 C 28.331 75.098,27.500 74.929,27.500 75.149 M28.833 75.649 C 28.833 75.819,29.661 76.061,29.793 75.929 C 29.841 75.882,29.677 75.766,29.429 75.671 C 28.879 75.462,28.833 75.461,28.833 75.649 M66.592 76.769 C 64.910 78.517,64.983 78.684,66.694 77.003 C 67.442 76.268,68.009 75.620,67.952 75.563 C 67.896 75.507,67.284 76.049,66.592 76.769 M31.167 76.647 C 31.167 76.728,31.311 76.832,31.488 76.878 C 31.713 76.937,31.782 76.893,31.720 76.731 C 31.623 76.479,31.167 76.409,31.167 76.647 M32.000 76.980 C 32.000 77.061,32.319 77.215,32.708 77.323 C 33.098 77.431,33.510 77.558,33.625 77.607 C 33.740 77.655,33.833 77.613,33.833 77.514 C 33.833 77.415,33.729 77.333,33.602 77.333 C 33.475 77.333,33.157 77.221,32.894 77.084 C 32.356 76.804,32.000 76.762,32.000 76.980 M35.000 78.000 C 35.000 78.092,35.150 78.167,35.333 78.167 C 35.517 78.167,35.667 78.092,35.667 78.000 C 35.667 77.908,35.517 77.833,35.333 77.833 C 35.150 77.833,35.000 77.908,35.000 78.000 M35.917 78.167 C 35.973 78.258,36.132 78.333,36.270 78.333 C 36.407 78.333,36.473 78.258,36.417 78.167 C 36.360 78.075,36.201 78.000,36.064 78.000 C 35.926 78.000,35.860 78.075,35.917 78.167 M36.833 78.500 C 36.833 78.592,36.946 78.667,37.083 78.667 C 37.221 78.667,37.333 78.592,37.333 78.500 C 37.333 78.408,37.221 78.333,37.083 78.333 C 36.946 78.333,36.833 78.408,36.833 78.500 M37.917 78.667 C 37.973 78.758,38.184 78.832,38.385 78.831 C 38.682 78.829,38.703 78.798,38.500 78.667 C 38.172 78.454,37.786 78.454,37.917 78.667 M39.333 79.000 C 39.333 79.092,39.446 79.167,39.583 79.167 C 39.721 79.167,39.833 79.092,39.833 79.000 C 39.833 78.908,39.721 78.833,39.583 78.833 C 39.446 78.833,39.333 78.908,39.333 79.000 M40.208 79.115 C 40.369 79.157,40.500 79.269,40.500 79.365 C 40.500 79.461,40.646 79.501,40.825 79.454 C 41.004 79.407,41.186 79.455,41.229 79.559 C 41.272 79.664,41.313 79.627,41.320 79.478 C 41.334 79.199,40.845 78.991,40.250 79.022 C 39.970 79.036,39.963 79.051,40.208 79.115 M41.917 79.500 C 41.973 79.592,42.165 79.667,42.343 79.667 C 42.521 79.667,42.667 79.592,42.667 79.500 C 42.667 79.408,42.475 79.333,42.240 79.333 C 41.998 79.333,41.858 79.405,41.917 79.500 " stroke="none" fill="#fceeb8" fill-rule="evenodd"></path><path id="path3" d="M0.407 48.736 C 0.229 48.866,0.122 49.011,0.169 49.058 C 0.216 49.105,0.441 49.001,0.669 48.826 C 1.144 48.461,0.898 48.377,0.407 48.736 M0.962 50.927 C 0.900 50.989,0.962 51.152,1.099 51.290 C 1.423 51.614,1.559 51.478,1.285 51.104 C 1.169 50.945,1.024 50.865,0.962 50.927 M2.949 53.990 C 2.999 54.179,3.105 54.333,3.186 54.333 C 3.411 54.333,3.362 54.064,3.096 53.844 C 2.902 53.683,2.876 53.709,2.949 53.990 M3.501 54.694 C 3.500 54.847,3.809 55.297,4.186 55.694 C 4.564 56.092,4.788 56.252,4.685 56.051 C 4.582 55.850,4.418 55.635,4.319 55.574 C 4.220 55.513,3.996 55.228,3.820 54.940 C 3.620 54.612,3.501 54.520,3.501 54.694 M78.552 56.625 C 78.495 56.785,78.418 56.973,78.381 57.042 C 78.344 57.110,78.384 57.167,78.471 57.167 C 78.557 57.167,78.664 56.979,78.707 56.750 C 78.799 56.271,78.705 56.195,78.552 56.625 M5.370 57.243 C 5.671 57.652,5.975 57.990,6.047 57.993 C 6.119 57.997,5.931 57.665,5.630 57.257 C 5.329 56.848,5.025 56.510,4.953 56.507 C 4.881 56.503,5.069 56.835,5.370 57.243 M78.087 57.726 C 78.039 57.877,77.965 58.112,77.922 58.250 C 77.879 58.387,77.908 58.500,77.986 58.500 C 78.064 58.500,78.167 58.294,78.216 58.042 C 78.314 57.529,78.222 57.302,78.087 57.726 M6.333 58.355 C 6.333 58.523,6.953 59.167,7.114 59.167 C 7.148 59.167,7.010 58.942,6.807 58.667 C 6.402 58.118,6.333 58.073,6.333 58.355 M8.096 60.390 C 8.206 60.676,10.339 62.865,10.327 62.679 C 10.324 62.626,9.795 62.025,9.153 61.342 C 8.510 60.659,8.035 60.230,8.096 60.390 M11.509 63.944 C 11.515 64.021,11.983 64.454,12.551 64.908 C 13.119 65.361,13.396 65.522,13.167 65.266 C 12.632 64.668,11.497 63.763,11.509 63.944 M74.529 65.183 C 74.220 65.677,74.357 65.714,74.716 65.234 C 74.881 65.013,74.955 64.833,74.881 64.833 C 74.807 64.833,74.649 64.991,74.529 65.183 M14.831 66.792 C 15.869 67.781,16.333 68.105,16.333 67.839 C 16.333 67.744,16.257 67.667,16.163 67.667 C 16.069 67.667,15.675 67.385,15.288 67.041 C 14.123 66.005,13.849 65.857,14.831 66.792 M62.240 67.875 L 61.750 68.417 62.292 67.927 C 62.590 67.658,62.833 67.414,62.833 67.385 C 62.833 67.257,62.696 67.370,62.240 67.875 M16.500 68.052 C 16.500 68.093,16.775 68.337,17.112 68.594 C 17.448 68.850,17.671 68.975,17.607 68.871 C 17.475 68.658,16.500 67.936,16.500 68.052 M60.573 69.542 L 60.083 70.083 60.625 69.594 C 61.130 69.138,61.243 69.000,61.115 69.000 C 61.086 69.000,60.842 69.244,60.573 69.542 M72.375 69.260 C 72.130 69.526,72.109 69.667,72.316 69.667 C 72.458 69.667,72.724 69.165,72.629 69.076 C 72.604 69.053,72.490 69.135,72.375 69.260 M18.762 69.980 C 18.712 70.062,18.857 70.164,19.085 70.208 C 19.583 70.303,19.613 70.239,19.177 70.005 C 18.994 69.907,18.814 69.897,18.762 69.980 M71.743 70.011 C 71.683 70.109,71.673 70.229,71.722 70.278 C 71.842 70.397,72.167 70.187,72.167 69.990 C 72.167 69.777,71.879 69.791,71.743 70.011 M70.854 71.086 C 70.253 71.770,69.757 72.667,69.979 72.667 C 70.064 72.667,70.207 72.457,70.297 72.200 C 70.386 71.943,70.721 71.456,71.041 71.117 C 71.361 70.778,71.565 70.500,71.495 70.500 C 71.425 70.500,71.136 70.764,70.854 71.086 M20.333 70.981 C 20.333 71.062,20.488 71.168,20.676 71.217 C 20.958 71.291,20.984 71.265,20.822 71.070 C 20.602 70.805,20.333 70.756,20.333 70.981 M23.929 73.145 C 24.106 73.317,24.279 73.431,24.315 73.399 C 24.421 73.306,23.976 72.833,23.784 72.833 C 23.687 72.833,23.753 72.974,23.929 73.145 M38.042 72.948 C 38.202 72.990,38.465 72.990,38.625 72.948 C 38.785 72.906,38.654 72.872,38.333 72.872 C 38.012 72.872,37.881 72.906,38.042 72.948 M69.540 73.164 C 69.278 73.585,69.279 73.677,69.548 73.574 C 69.666 73.528,69.774 73.343,69.788 73.162 C 69.819 72.753,69.797 72.753,69.540 73.164 M42.375 73.282 C 42.535 73.323,42.798 73.323,42.958 73.282 C 43.119 73.240,42.987 73.205,42.667 73.205 C 42.346 73.205,42.215 73.240,42.375 73.282 M45.708 73.282 C 45.869 73.323,46.131 73.323,46.292 73.282 C 46.452 73.240,46.321 73.205,46.000 73.205 C 45.679 73.205,45.548 73.240,45.708 73.282 M26.333 74.327 C 26.333 74.422,26.440 74.500,26.569 74.500 C 26.699 74.500,26.843 74.594,26.890 74.708 C 26.953 74.865,26.977 74.867,26.987 74.714 C 26.994 74.603,26.850 74.431,26.667 74.333 C 26.441 74.212,26.333 74.210,26.333 74.327 M27.333 74.830 C 27.333 74.902,27.519 74.997,27.745 75.040 C 27.971 75.083,28.123 75.063,28.081 74.996 C 27.970 74.817,27.333 74.675,27.333 74.830 M67.958 75.078 C 67.519 75.683,67.609 75.818,68.084 75.266 C 68.530 74.747,68.571 74.664,68.375 74.672 C 68.306 74.675,68.119 74.858,67.958 75.078 M30.418 76.169 C 30.474 76.259,30.621 76.333,30.746 76.333 C 30.870 76.333,31.010 76.410,31.057 76.504 C 31.104 76.598,31.125 76.587,31.104 76.478 C 31.083 76.370,30.897 76.219,30.691 76.143 C 30.453 76.055,30.354 76.065,30.418 76.169 M31.667 76.671 C 31.667 76.739,31.888 76.828,32.158 76.868 C 32.428 76.907,32.617 76.887,32.577 76.823 C 32.474 76.656,31.667 76.521,31.667 76.671 M65.844 77.404 L 65.271 78.083 65.919 77.464 C 66.275 77.123,66.533 76.817,66.492 76.784 C 66.450 76.751,66.159 77.030,65.844 77.404 M33.072 77.149 C 33.135 77.250,33.332 77.333,33.510 77.333 C 33.688 77.333,33.833 77.408,33.833 77.500 C 33.833 77.592,33.924 77.667,34.036 77.667 C 34.343 77.667,33.827 77.226,33.354 77.083 C 33.083 77.002,32.994 77.023,33.072 77.149 M38.500 78.658 C 38.637 78.752,38.969 78.829,39.236 78.831 C 39.877 78.834,39.743 78.738,38.917 78.599 C 38.439 78.519,38.321 78.536,38.500 78.658 " stroke="none" fill="#fcf4d4" fill-rule="evenodd"></path><path id="path4" d="" stroke="none" fill="#fc100f0" fill-rule="evenodd"></path></g></svg>